<svg width="14" height="21" viewBox="0 0 14 21" fill="none" xmlns="http://www.w3.org/2000/svg">
<path d="M6.56288 16.8326C6.56304 16.8328 6.5632 16.8329 6.56336 16.8331C6.5831 16.8528 6.60388 16.8715 6.62546 16.8892C6.63535 16.8973 6.6458 16.9044 6.65597 16.912C6.6681 16.9211 6.67999 16.9305 6.6926 16.939C6.70477 16.9471 6.71739 16.9541 6.72988 16.9616C6.74133 16.9684 6.7525 16.9756 6.76427 16.9819C6.777 16.9887 6.79009 16.9945 6.80311 17.0006C6.81536 17.0064 6.82745 17.0125 6.84002 17.0177C6.85263 17.0229 6.86553 17.0272 6.87834 17.0317C6.89183 17.0366 6.90512 17.0417 6.9189 17.0459C6.93171 17.0498 6.94472 17.0526 6.95769 17.0559C6.97175 17.0594 6.98564 17.0634 6.99997 17.0662C7.01499 17.0692 7.03012 17.0709 7.04522 17.0731C7.05767 17.0749 7.06996 17.0773 7.08257 17.0785C7.13862 17.084 7.19512 17.084 7.25117 17.0785C7.26378 17.0773 7.27607 17.0749 7.28853 17.0731C7.30362 17.0709 7.31875 17.0692 7.33377 17.0662C7.3481 17.0634 7.36199 17.0594 7.37605 17.0559C7.38898 17.0526 7.40203 17.0498 7.41484 17.0459C7.42862 17.0417 7.44195 17.0366 7.4554 17.0317C7.46821 17.0271 7.48111 17.0229 7.49372 17.0177C7.50629 17.0125 7.51838 17.0064 7.53063 17.0006C7.54365 16.9945 7.55674 16.9887 7.56947 16.9819C7.58124 16.9756 7.59241 16.9684 7.60386 16.9616C7.61636 16.9541 7.62897 16.9471 7.64114 16.939C7.65375 16.9305 7.66564 16.9211 7.67777 16.912C7.68794 16.9044 7.69839 16.8973 7.70828 16.8892C7.72986 16.8715 7.75064 16.8528 7.77038 16.8331C7.77054 16.8329 7.7707 16.8328 7.77086 16.8326L13.7498 10.8537C14.0834 10.5201 14.0834 9.97927 13.7498 9.64572C13.4163 9.31216 12.8754 9.31216 12.5419 9.64572L8.02098 14.1666V0.854127C8.02098 0.382402 7.63858 0 7.16685 0C6.69512 0 6.31272 0.382402 6.31272 0.854127V14.1666L1.79185 9.64572C1.45829 9.31216 0.917462 9.31216 0.583907 9.64572C0.250351 9.97927 0.250351 10.5201 0.583907 10.8537L6.56288 16.8326Z" fill="black"/>
<path d="M13.1458 18.7911H1.1879C0.716172 18.7911 0.333771 19.1735 0.333771 19.6452C0.333771 20.1169 0.716172 20.4994 1.1879 20.4994H13.1459C13.6176 20.4994 14 20.117 14 19.6453C14 19.1735 13.6176 18.7911 13.1458 18.7911Z" fill="black"/>
</svg>
