<svg width="58" height="58" viewBox="0 0 58 58" fill="none" xmlns="http://www.w3.org/2000/svg">
<g id="linked-in">
<g clip-path="url(#clip0)">
<path id="Vector" d="M45.9167 2H12.0833C5.41092 2 0 7.41092 0 14.0833V47.9167C0 54.5891 5.41092 60 12.0833 60H45.9167C52.5915 60 58 54.5891 58 47.9167V14.0833C58 7.41092 52.5915 2 45.9167 2ZM19.3333 47.9167H12.0833V21.3333H19.3333V47.9167ZM15.7083 18.269C13.3738 18.269 11.4792 16.3598 11.4792 14.006C11.4792 11.6522 13.3738 9.743 15.7083 9.743C18.0428 9.743 19.9375 11.6522 19.9375 14.006C19.9375 16.3598 18.0453 18.269 15.7083 18.269ZM48.3333 47.9167H41.0833V34.3737C41.0833 26.2343 31.4167 26.8506 31.4167 34.3737V47.9167H24.1667V21.3333H31.4167V25.5988C34.7903 19.3493 48.3333 18.8877 48.3333 31.5824V47.9167Z" fill="url(#paint0_linear)"/>
</g>
</g>
<defs>
<linearGradient id="paint0_linear" x1="53" y1="6" x2="4.5" y2="57" gradientUnits="userSpaceOnUse">
<stop stop-color="#565377" stop-opacity="0.79"/>
<stop offset="1" stop-color="#565377"/>
</linearGradient>
<clipPath id="clip0">
<rect width="58" height="58" fill="white"/>
</clipPath>
</defs>
</svg>
