<svg width="766" height="821" viewBox="0 0 766 821" fill="none" xmlns="http://www.w3.org/2000/svg">
<g id="virtual-assistant">
<path id="floor" d="M766 766.435H0V768.435H766V766.435Z" fill="#3F3D56"/>
<path id="left-square" d="M729.53 743.716H706.17V767.078H729.53V743.716Z" fill="black"/>
<path id="right-diamond" d="M115.518 735.524L97.357 750.218L112.051 768.379L130.212 753.685L115.518 735.524Z" fill="black"/>
<g id="face">
<path id="Vector" d="M384 91.072H382V419.072H384V91.072Z" fill="#3F3D56"/>
<path id="Vector_2" d="M627 122.072H495V124.072H627V122.072Z" fill="#3F3D56"/>
<path id="Vector_3" d="M271 122.072H139V124.072H271V122.072Z" fill="#3F3D56"/>
<path id="Vector_4" d="M139.41 18.984L138.59 17.16C189.497 -5.73999 234.222 -5.719 271.524 17.22L270.476 18.924C233.773 -3.648 189.677 -3.627 139.41 18.984Z" fill="#3F3D56"/>
<path id="Vector_5" d="M491.41 18.984L490.59 17.16C541.497 -5.73999 586.222 -5.719 623.523 17.22L622.477 18.924C585.772 -3.648 541.678 -3.628 491.41 18.984Z" fill="#3F3D56"/>
<path id="smile" d="M392.545 619.738C387.826 619.738 382.919 619.57 377.934 619.24C367.661 618.519 357.448 617.12 347.36 615.051C265.138 598.278 204.907 541.368 204.309 540.794L205.691 539.349C206.286 539.918 266.12 596.437 347.76 613.092C357.76 615.142 367.885 616.529 378.068 617.244C383.519 617.606 388.877 617.777 393.992 617.732C404.661 617.672 415.308 616.784 425.839 615.075C474.136 607.195 519.369 581.726 560.281 539.377L561.719 540.766C520.501 583.433 474.893 609.098 426.161 617.049C415.528 618.774 404.778 619.671 394.006 619.732C393.521 619.736 393.033 619.738 392.545 619.738Z" fill="#3F3D56"/>
<g id="right-cheek">
<path id="Vector_6" d="M68 380.072C100.033 380.072 126 354.104 126 322.072C126 290.039 100.033 264.072 68 264.072C35.967 264.072 10 290.039 10 322.072C10 354.104 35.967 380.072 68 380.072Z" fill="black"/>
<path id="Vector_7" d="M68 381.072C54.551 381.072 41.404 377.084 30.221 369.612C19.039 362.14 10.323 351.52 5.17598 339.094C0.0289812 326.669 -1.31701 312.996 1.30699 299.806C3.92999 286.615 10.407 274.498 19.917 264.988C29.427 255.478 41.543 249.002 54.734 246.378C67.925 243.754 81.597 245.101 94.022 250.248C106.448 255.395 117.068 264.11 124.54 275.293C132.012 286.475 136 299.623 136 313.072C135.98 331.1 128.809 348.384 116.061 361.132C103.313 373.88 86.028 381.051 68 381.072ZM68 247.072C54.946 247.072 42.186 250.942 31.332 258.195C20.479 265.447 12.019 275.755 7.02397 287.815C2.02897 299.874 0.721992 313.145 3.26799 325.948C5.81499 338.75 12.101 350.51 21.331 359.741C30.561 368.971 42.321 375.257 55.124 377.803C67.927 380.35 81.197 379.043 93.257 374.048C105.317 369.052 115.625 360.593 122.877 349.739C130.129 338.886 134 326.125 134 313.072C133.98 295.573 127.02 278.798 114.647 266.424C102.274 254.051 85.498 247.091 68 247.072Z" fill="#3F3D56"/>
</g>
<g id="left-cheek">
<path id="Vector_8" d="M698 380.072C730.03 380.072 756 354.104 756 322.072C756 290.039 730.03 264.072 698 264.072C665.97 264.072 640 290.039 640 322.072C640 354.104 665.97 380.072 698 380.072Z" fill="black"/>
<path id="Vector_9" d="M698 381.072C684.55 381.072 671.4 377.084 660.22 369.612C649.04 362.14 640.32 351.52 635.18 339.094C630.029 326.669 628.683 312.996 631.307 299.806C633.93 286.615 640.41 274.498 649.92 264.988C659.43 255.478 671.54 249.002 684.73 246.378C697.92 243.754 711.6 245.101 724.02 250.248C736.45 255.395 747.07 264.11 754.54 275.293C762.01 286.475 766 299.623 766 313.072C765.98 331.1 758.81 348.384 746.06 361.132C733.31 373.88 716.03 381.051 698 381.072ZM698 247.072C684.95 247.072 672.19 250.942 661.33 258.195C650.48 265.447 642.02 275.755 637.02 287.815C632.029 299.874 630.722 313.145 633.27 325.948C635.81 338.75 642.1 350.51 651.33 359.741C660.56 368.971 672.32 375.257 685.12 377.803C697.93 380.35 711.2 379.043 723.26 374.048C735.32 369.052 745.62 360.593 752.88 349.739C760.13 338.886 764 326.125 764 313.072C763.98 295.573 757.02 278.798 744.65 266.424C732.27 254.051 715.5 247.091 698 247.072Z" fill="#3F3D56"/>
</g>
<path id="Vector_10" d="M351 432.072C355.971 432.072 360 428.042 360 423.072C360 418.101 355.971 414.072 351 414.072C346.029 414.072 342 418.101 342 423.072C342 428.042 346.029 432.072 351 432.072Z" fill="#3F3D56"/>
<path id="Vector_11" d="M415 432.072C419.971 432.072 424 428.042 424 423.072C424 418.101 419.971 414.072 415 414.072C410.029 414.072 406 418.101 406 423.072C406 428.042 410.029 432.072 415 432.072Z" fill="#3F3D56"/>
<path id="Vector_12" d="M383 690.072C396.807 690.072 408 686.042 408 681.072C408 676.101 396.807 672.072 383 672.072C369.193 672.072 358 676.101 358 681.072C358 686.042 369.193 690.072 383 690.072Z" fill="#F2F2F2"/>
<g id="right-eye">
<path id="Vector_13" d="M205 122.072C222.121 122.072 236 108.192 236 91.072C236 73.951 222.121 60.072 205 60.072C187.879 60.072 174 73.951 174 91.072C174 108.192 187.879 122.072 205 122.072Z" fill="#3F3D56"/>
<path id="right-pupil" d="M212 112.072C216.418 112.072 220 108.49 220 104.072C220 99.653 216.418 96.072 212 96.072C207.582 96.072 204 99.653 204 104.072C204 108.49 207.582 112.072 212 112.072Z" fill="#F2F2F2"/>
</g>
<g id="left-eye">
<path id="Vector_14" d="M561 122.072C578.121 122.072 592 108.192 592 91.072C592 73.951 578.121 60.072 561 60.072C543.879 60.072 530 73.951 530 91.072C530 108.192 543.879 122.072 561 122.072Z" fill="#3F3D56"/>
<path id="left-pupil" d="M571 112.072C575.418 112.072 579 108.49 579 104.072C579 99.653 575.418 96.072 571 96.072C566.582 96.072 563 99.653 563 104.072C563 108.49 566.582 112.072 571 112.072Z" fill="#F2F2F2"/>
</g>
</g>
<g id="me">
<path id="Vector_15" d="M730.14 798.494C729.59 796.518 729.04 794.521 727.94 792.802C726.92 791.344 725.71 790.028 724.34 788.889C720.35 785.298 715.46 781.652 710.18 782.558C708.54 782.917 706.96 783.49 705.48 784.261C704.71 784.616 703.93 784.97 703.14 785.27C700.91 786.195 698.45 786.409 696.09 785.882C694.88 785.56 693.75 784.981 692.56 784.621C691.99 784.452 691.42 784.328 690.83 784.25C691.98 783.738 693.1 783.153 694.18 782.498C700.11 778.896 704.84 772.385 704.18 765.422C703.95 763.08 703.14 760.837 702.34 758.627L700.23 752.831C699.31 750.321 698.37 747.761 696.7 745.676C694.85 743.351 692.21 741.774 689.48 740.601C683.62 738.074 677.22 737.184 670.9 736.322L670.46 736.262V668.518C670.46 667.36 670 666.249 669.18 665.431C668.35 664.612 667.23 664.152 666.07 664.152H657.76C657.39 661.925 657.03 659.702 656.66 657.483C655.62 651.147 654.53 644.696 651.59 638.993C649.67 635.26 646.6 631.696 642.47 630.965C641.66 630.892 640.86 630.708 640.1 630.419C638.89 629.83 638.23 628.52 637.3 627.554C634.91 625.06 631.007 625.021 627.796 623.733C624.958 622.615 622.637 620.508 620.053 618.887C617.468 617.266 614.256 616.115 611.397 617.168C611.397 617.375 611.358 617.583 611.336 617.785L609.5 616.944C607.52 616.033 605.502 615.1 603.912 613.604C601.872 611.694 600.783 609.162 599.936 606.471C599.848 606.193 599.766 605.926 599.678 605.625C603.193 602.067 605.573 597.558 606.519 592.664L606.964 594.099C607.065 594.422 607.182 594.739 607.316 595.049C607.544 595.649 607.922 596.18 608.416 596.593C608.557 596.703 608.713 596.793 608.878 596.861C609.03 596.92 609.189 596.961 609.351 596.981C609.579 597.009 609.811 596.992 610.033 596.932C610.405 596.817 610.746 596.622 611.032 596.359C611.317 596.097 611.54 595.774 611.683 595.414C611.77 595.2 611.835 594.977 611.875 594.749C611.897 594.611 611.909 594.473 611.914 594.334C611.914 594.29 611.914 594.247 611.914 594.203C611.914 594.159 611.914 594.012 611.914 593.919C611.914 593.826 611.914 593.821 611.914 593.766C611.914 593.712 611.914 593.586 611.886 593.493V593.352C611.886 593.242 611.853 593.133 611.831 593.029C611.809 592.926 611.831 592.969 611.831 592.942C611.804 592.806 611.771 592.664 611.743 592.527C611.743 592.495 611.743 592.456 611.743 592.424C611.743 592.391 611.694 592.2 611.666 592.085C611.639 591.971 611.628 591.938 611.611 591.862V591.829C611.556 591.611 611.507 591.398 611.457 591.179C611.058 589.285 610.956 587.341 611.155 585.416C611.484 582.591 612.01 579.792 612.728 577.039L612.843 576.542C612.887 576.351 612.931 576.16 612.97 575.964C613.058 575.571 613.146 575.178 613.228 574.78L613.426 573.775L613.575 572.88V572.766C613.883 570.738 613.948 568.68 613.767 566.637C613.514 563.783 612.623 561.081 610.671 558.931C609.291 557.408 607.47 556.284 606.189 554.685C604.99 553.19 604.314 551.345 603.071 549.877C599.639 545.811 590.829 542.678 585.424 542.133C579.231 541.511 569.228 543.082 564.235 546.712C562.387 548.049 561.122 549.986 559.835 551.82C557.471 555.231 554.787 558.636 550.998 560.552C549.568 561.272 547.929 561.818 546.978 563.073C546.412 563.924 546.045 564.89 545.905 565.9C545.177 569.454 544.798 573.069 544.773 576.695C544.773 577.148 544.773 577.601 544.773 578.06C544.784 579.419 545.076 580.762 545.631 582.005C545.719 582.191 545.818 582.371 545.922 582.551L545.988 582.666C546.653 583.609 547.242 584.604 547.748 585.64C547.874 585.93 547.964 586.234 548.017 586.546C548.111 587.345 548.059 588.155 547.863 588.936C547.863 589.056 547.814 589.176 547.792 589.297L547.742 589.531C547.742 589.613 547.742 589.695 547.698 589.771C547.654 590.006 547.616 590.241 547.583 590.47C547.499 591.101 547.541 591.743 547.704 592.358C547.779 592.701 547.927 593.025 548.137 593.307C548.348 593.589 548.616 593.824 548.925 593.995C549.238 594.145 549.571 594.248 549.914 594.301C550.261 594.361 550.613 594.399 550.954 594.476C551.392 594.575 551.816 594.731 552.213 594.94C552.594 595.12 552.951 595.348 553.275 595.616C553.435 595.761 553.587 595.914 553.731 596.075C554.021 596.405 554.283 596.759 554.512 597.134C554.629 597.326 554.739 597.523 554.842 597.723C555.236 598.513 555.551 599.339 555.782 600.19C555.925 600.697 556.046 601.21 556.151 601.723C556.2 601.953 556.244 602.182 556.283 602.406C556.321 602.629 556.36 602.858 556.393 603.082C556.543 603.074 556.691 603.044 556.833 602.995C557.641 602.706 558.092 601.772 558.345 600.866C558.389 600.714 558.427 600.566 558.46 600.419C558.587 599.873 558.719 599.273 558.845 598.7C561.013 603.268 564.508 607.088 568.882 609.669C569.036 610.122 569.184 610.57 569.316 611.028C570.036 613.501 570.383 616.088 569.135 618.249C568.244 619.782 566.748 620.726 565.076 621.381C564.835 621.062 564.525 620.801 564.169 620.617C562.722 619.897 560.985 620.77 559.769 621.845C557.57 623.821 555.777 626.653 552.884 627.303C551.839 627.543 550.684 627.494 549.816 628.127C549.241 628.663 548.76 629.29 548.391 629.982C547.764 630.877 546.919 631.601 545.936 632.087C544.953 632.573 543.863 632.807 542.765 632.766C541.759 632.717 540.566 632.487 539.878 633.219C539.367 633.764 539.328 634.627 538.778 635.145C538.041 635.866 536.832 635.516 535.803 635.473C533.845 635.391 532.025 636.646 530.909 638.256C529.793 639.866 529.259 641.792 528.709 643.713V643.746C528.568 643.848 528.434 643.959 528.308 644.079C527.775 644.643 527.361 645.307 527.092 646.033C522.645 656.082 520.02 666.83 519.338 677.785C519.349 678.319 519.228 678.847 518.986 679.324C518.74 679.635 518.47 679.927 518.178 680.197C517.917 680.514 517.722 680.881 517.606 681.274C517.49 681.668 517.455 682.08 517.503 682.487C517.55 682.895 517.68 683.288 517.884 683.645C518.088 684.001 518.362 684.313 518.689 684.563C518.848 684.278 519.046 684.017 519.278 683.788C519.217 684.039 519.162 684.285 519.124 684.508C518.903 686.101 518.883 687.714 519.063 689.311C519.584 696.893 520.11 704.47 520.642 712.042C520.79 714.186 520.939 716.326 521.137 718.465C521.522 722.605 522.071 726.73 522.786 730.837C522.819 731.023 522.858 731.214 522.907 731.383C518.425 732.796 514.438 735.351 512.761 739.613C512.178 741.086 511.914 742.691 511.199 744.104C510.413 745.654 509.121 746.893 508.263 748.41C506.783 751.019 506.717 754.217 507.256 757.142C508.296 762.846 511.403 767.943 515.505 772.091C515.324 772.091 515.137 772.091 514.955 772.091C513.615 772.238 512.328 772.696 511.199 773.428C502.521 778.46 497.561 789.254 499.37 799.111C499.728 801.037 500.349 802.991 501.647 804.459C502.726 805.626 504.113 806.469 505.651 806.893C506.612 807.18 507.602 807.363 508.604 807.439C515.368 807.985 521.917 804.874 528.698 804.612C530.944 804.576 533.191 804.68 535.424 804.923C538.69 805.192 541.962 805.363 545.24 805.436C550.569 805.562 553.566 804.153 556.965 800.202C557.8 799.219 558.497 798.129 559.038 796.961C561.93 796.797 565.126 796.546 567.435 796.36L567.468 796.677C567.595 797.768 567.787 799.023 568.667 799.711C569.162 800.05 569.725 800.279 570.317 800.382C575.871 801.736 581.492 803.111 587.211 803.111C589.895 803.057 592.574 802.853 595.234 802.5L605.282 801.348C608.209 801.717 611.099 802.341 613.916 803.215C616.819 804.192 619.53 805.643 622.368 806.795C628.967 809.447 636.06 810.397 643.09 811.325C644.29 811.483 645.66 811.592 646.55 810.779C647.69 809.687 647.31 807.865 646.99 806.337C646.86 805.709 646.76 805.081 646.68 804.448C651.42 805.689 656.06 807.287 660.56 809.229L661.35 809.573C661.58 810.763 662.68 811.712 663.74 812.995C664.09 813.536 664.5 814.037 664.96 814.49C665.49 814.828 666.08 815.041 666.7 815.112C674.12 816.484 681.7 816.824 689.21 816.122C690.75 815.914 692.31 815.861 693.85 815.964C694.99 816.117 696.11 816.367 697.21 816.711L703.57 818.523C708.26 819.855 713.06 821.203 717.93 820.903C718.92 820.841 719.9 820.701 720.86 820.482C724.71 819.598 728.3 817.464 730.14 814.032C732.76 809.365 731.55 803.624 730.14 798.494Z" fill="url(#paint0_linear)"/>
<path id="Vector_16" d="M551.752 794.282C550.592 791.662 549.492 788.649 550.653 786.03C551.41 784.487 552.711 783.274 554.31 782.619C555.891 781.979 557.559 781.571 559.259 781.407C564.596 780.713 569.996 780.639 575.35 781.189C575.741 784.256 574.916 787.367 574.206 790.33C573.563 793.059 573.194 793.463 570.357 793.605C568.52 793.703 552.187 795.248 551.752 794.282Z" fill="#FFD5D8"/>
<path id="Vector_17" d="M600.724 776.61C644.16 776.61 679.36 766.836 679.36 754.78C679.36 742.724 644.16 732.95 600.724 732.95C557.292 732.95 522.083 742.724 522.083 754.78C522.083 766.836 557.292 776.61 600.724 776.61Z" fill="#464353"/>
<path id="Vector_18" opacity="0.1" d="M600.724 776.61C644.16 776.61 679.36 766.836 679.36 754.78C679.36 742.724 644.16 732.95 600.724 732.95C557.292 732.95 522.083 742.724 522.083 754.78C522.083 766.836 557.292 776.61 600.724 776.61Z" fill="black"/>
<path id="Vector_19" d="M614.824 639.539C612.128 644.708 607.651 648.745 602.208 650.913C598.995 652.075 595.613 652.712 592.194 652.801C588.46 652.97 584.649 652.73 581.141 651.464C576.433 649.772 572.523 646.312 569.592 642.279C566.661 638.246 564.643 633.64 562.888 628.995C561.964 626.578 561.085 624.002 561.519 621.448C564.351 620.809 567.453 619.87 568.916 617.376C570.164 615.237 569.818 612.672 569.097 610.227C568.894 609.534 568.657 608.846 568.421 608.186C567.871 606.603 565.973 603.596 567.321 602.243C568.162 601.386 571.687 600.949 572.903 600.392C576.648 598.679 580.101 596.201 584.215 595.388C587.773 594.684 591.446 595.344 594.999 596.076C595.47 596.144 595.923 596.305 596.33 596.55C596.794 596.938 597.137 597.45 597.32 598.024C598.331 600.469 598.925 603.17 599.739 605.719C600.586 608.388 601.675 610.893 603.715 612.786C605.305 614.265 607.328 615.193 609.308 616.094L614.18 618.309C615.047 618.632 615.833 619.136 616.485 619.788C617.122 620.658 617.503 621.686 617.585 622.757C618.458 628.5 617.492 634.37 614.824 639.539Z" fill="#FFD5D8"/>
<path id="Vector_20" opacity="0.1" d="M599.717 605.719C595.837 609.728 590.726 612.346 585.186 613.161C579.645 613.977 573.989 612.945 569.103 610.227C568.899 609.534 568.663 608.846 568.426 608.186C567.876 606.603 565.979 603.596 567.326 602.243C568.168 601.386 571.693 600.949 572.908 600.392C576.653 598.679 580.107 596.201 584.22 595.388C587.778 594.684 591.452 595.344 595.005 596.076C595.476 596.144 595.928 596.305 596.335 596.55C596.799 596.938 597.143 597.45 597.325 598.024C598.31 600.469 598.904 603.17 599.717 605.719Z" fill="black"/>
<path id="Vector_21" d="M581.477 612.339C595.448 612.339 606.773 601.099 606.773 587.234C606.773 573.37 595.448 562.13 581.477 562.13C567.505 562.13 556.18 573.37 556.18 587.234C556.18 601.099 567.505 612.339 581.477 612.339Z" fill="#FFD5D8"/>
<path id="Vector_22" d="M658.55 668.71L656.47 656.212C655.42 649.941 654.34 643.55 651.4 637.902C649.47 634.202 646.41 630.676 642.28 629.945C641.46 629.873 640.66 629.689 639.9 629.399C638.69 628.821 638.03 627.522 637.1 626.561C634.7 624.094 630.8 624.056 627.588 622.801C624.75 621.71 622.43 619.608 619.845 618.004C617.26 616.399 614.043 615.275 611.183 616.301C610.722 621.186 610.232 626.179 608.142 630.627C606.782 633.523 604.787 636.08 602.303 638.112C599.819 640.144 596.908 641.599 593.785 642.371C590.661 643.143 587.403 643.213 584.248 642.575C581.094 641.936 578.123 640.607 575.553 638.682C570.654 635.02 567.513 629.372 566.051 623.461C565.693 622.021 565.286 620.367 563.95 619.707C562.504 618.986 560.766 619.859 559.55 620.918C557.351 622.877 555.552 625.683 552.66 626.343C551.615 626.583 550.46 626.534 549.591 627.162C549.014 627.69 548.53 628.312 548.161 629.001C547.528 629.888 546.683 630.606 545.7 631.088C544.718 631.57 543.631 631.802 542.536 631.762C541.529 631.713 540.336 631.484 539.648 632.21C539.137 632.756 539.098 633.607 538.549 634.114C537.806 634.829 536.602 634.48 535.568 634.442C533.61 634.36 531.79 635.604 530.668 637.171C529.546 638.737 529.018 640.674 528.468 642.552C534.479 655.835 539.978 669.135 545.989 682.419C546.271 682.92 546.42 683.483 546.424 684.056C546.303 684.651 546.047 685.211 545.676 685.693C542.728 690.392 542.821 696.303 543.146 701.826C543.47 707.349 543.866 713.183 541.381 718.133C540.704 719.492 539.824 720.736 539.181 722.095C537.674 725.173 537.13 735.018 538.01 738.326H662.34C659.97 731.859 660.87 718.881 661.36 712.015C661.71 707.212 660.81 702.415 660.43 697.613C659.59 687.805 660.18 678.5 658.55 668.71Z" fill="black"/>
<path id="Vector_23" d="M518.944 683.008C518.724 684.588 518.701 686.188 518.878 687.773L520.456 710.296C520.604 712.419 520.753 714.536 520.951 716.654C521.33 720.763 521.897 724.84 522.601 728.911C522.617 729.49 522.863 730.038 523.286 730.436C523.708 730.834 524.273 731.049 524.855 731.034C531.812 732.497 539 732.437 546.099 732.039C556.933 731.438 567.75 730.068 578.6 730.303C581.394 730.363 584.649 730.303 586.343 728.12C588.037 725.937 587.053 722.406 584.842 720.643C582.631 718.881 579.629 718.46 576.791 718.46C573.035 718.422 569.279 718.952 565.534 718.733C562.097 718.531 558.737 717.707 555.404 716.883L546.055 714.575C546.413 711.764 547.491 709.117 548.513 706.448C550.35 701.717 552.066 696.827 552.099 691.757C552.132 686.687 550.207 681.355 546.022 678.451C542.58 676.066 538.147 675.624 533.951 675.723C530.899 675.81 525.625 675.084 522.837 676.268C520.632 677.229 519.356 680.863 518.944 683.008Z" fill="#FFD5D8"/>
<path id="Vector_24" d="M664.91 734.505C666.74 733.812 668.76 734.063 670.72 734.325C677.04 735.182 683.46 736.061 689.31 738.566C692.06 739.734 694.68 741.295 696.54 743.592C698.19 745.661 699.15 748.193 700.06 750.687L702.18 756.428C702.98 758.611 703.79 760.838 704.02 763.157C704.68 770.028 699.94 776.506 693.99 780.076C688.03 783.645 681.02 784.916 674.19 786.248C667.36 787.58 660.5 789.053 653.7 790.614C650.53 791.431 647.31 792.06 644.06 792.497C636.78 793.316 629.166 792.109 622.248 794.5C619.499 795.455 616.798 796.874 613.944 797.534C612.048 797.93 610.132 798.22 608.203 798.402L595.109 799.886C592.446 800.24 589.766 800.444 587.08 800.498C581.361 800.498 575.735 799.155 570.181 797.813C569.59 797.71 569.028 797.485 568.531 797.152C567.651 796.465 567.458 795.248 567.332 794.145C566.771 789.266 566.28 784.382 565.858 779.492C565.726 777.904 565.627 776.184 566.502 774.847C567.601 773.21 569.746 772.697 571.704 772.381C580.006 771.033 588.415 770.454 596.825 770.651C600.02 767.48 605.288 767.463 609.473 765.739C611.013 765.037 612.503 764.233 613.933 763.332C621.419 758.998 629.785 756.374 638.42 755.653C640.11 755.602 641.79 755.364 643.43 754.944C646.67 753.945 649.62 751.227 652.95 751.893C653.36 750.763 653.65 749.252 654.6 748.477C655.07 748.078 655.66 747.811 656.09 747.385C657.01 746.463 657.09 745.011 656.95 743.723C656.82 742.435 656.51 741.114 656.84 739.859C656.98 739.384 657.19 738.93 657.45 738.511C659.1 735.684 661.6 734.233 664.91 734.505Z" fill="#464353"/>
<path id="Vector_25" opacity="0.05" d="M664.91 734.505C666.74 733.812 668.76 734.063 670.72 734.325C677.04 735.182 683.46 736.061 689.31 738.566C692.06 739.734 694.68 741.295 696.54 743.592C698.19 745.661 699.15 748.193 700.06 750.687L702.18 756.428C702.98 758.611 703.79 760.838 704.02 763.157C704.68 770.028 699.94 776.506 693.99 780.076C688.03 783.645 681.02 784.916 674.19 786.248C667.36 787.58 660.5 789.053 653.7 790.614C650.53 791.431 647.31 792.06 644.06 792.497C636.78 793.316 629.166 792.109 622.248 794.5C619.499 795.455 616.798 796.874 613.944 797.534C612.048 797.93 610.132 798.22 608.203 798.402L595.109 799.886C592.446 800.24 589.766 800.444 587.08 800.498C581.361 800.498 575.735 799.155 570.181 797.813C569.59 797.71 569.028 797.485 568.531 797.152C567.651 796.465 567.458 795.248 567.332 794.145C566.771 789.266 566.28 784.382 565.858 779.492C565.726 777.904 565.627 776.184 566.502 774.847C567.601 773.21 569.746 772.697 571.704 772.381C580.006 771.033 588.415 770.454 596.825 770.651C600.02 767.48 605.288 767.463 609.473 765.739C611.013 765.037 612.503 764.233 613.933 763.332C621.419 758.998 629.785 756.374 638.42 755.653C640.11 755.602 641.79 755.364 643.43 754.944C646.67 753.945 649.62 751.227 652.95 751.893C653.36 750.763 653.65 749.252 654.6 748.477C655.07 748.078 655.66 747.811 656.09 747.385C657.01 746.463 657.09 745.011 656.95 743.723C656.82 742.435 656.51 741.114 656.84 739.859C656.98 739.384 657.19 738.93 657.45 738.511C659.1 735.684 661.6 734.233 664.91 734.505Z" fill="black"/>
<path id="Vector_26" d="M556.812 797.654C553.408 801.567 550.411 802.965 545.082 802.839C541.804 802.763 538.531 802.593 535.26 802.332C533.025 802.092 530.777 801.988 528.529 802.02C521.743 802.282 515.193 805.366 508.424 804.826C507.423 804.747 506.433 804.564 505.47 804.28C503.935 803.86 502.547 803.025 501.461 801.868C500.164 800.41 499.542 798.479 499.185 796.568C497.375 786.778 502.336 776.114 511.019 771.131C512.152 770.405 513.44 769.951 514.781 769.805C516.095 769.799 517.395 770.083 518.586 770.634L518.669 770.667C522.197 772.108 525.401 774.23 528.095 776.91C528.503 777.375 528.991 777.765 529.535 778.062C530.079 778.266 530.654 778.373 531.235 778.378L538.461 778.831C539.685 778.868 540.902 779.034 542.09 779.328C543.401 779.782 544.676 780.329 545.907 780.965C549.795 782.69 554.106 783.148 558.308 783.814C558.713 783.836 559.099 783.99 559.408 784.251C559.575 784.458 559.692 784.701 559.749 784.96C560.339 787.153 560.38 789.457 559.868 791.669C559.357 793.882 558.307 795.936 556.812 797.654Z" fill="#3F3D56"/>
<path id="Vector_27" opacity="0.1" d="M518.669 770.672C515.865 773.329 513.433 776.347 511.437 779.645C508.234 785.087 506.222 791.138 505.531 797.403C505.269 799.689 505.249 801.995 505.47 804.285C503.935 803.865 502.547 803.03 501.461 801.873C500.164 800.416 499.542 798.484 499.185 796.574C497.375 786.783 502.336 776.119 511.019 771.136C512.152 770.41 513.44 769.956 514.781 769.81C516.095 769.805 517.395 770.088 518.586 770.64L518.669 770.672Z" fill="black"/>
<path id="Vector_28" d="M658.62 784.251C662.66 784.142 667.2 783.94 670.17 786.641C673 789.195 673.38 793.408 673.56 797.201L673.78 801.606C673.84 802.948 673.9 804.334 673.35 805.579C672.39 807.762 669.73 808.815 667.3 808.689C664.88 808.564 662.65 807.511 660.44 806.561C654.42 803.989 648.15 802.03 641.74 800.716C641.95 797.671 642.3 794.64 642.78 791.624C643.12 789.534 643.17 786.035 644.58 784.3C646.07 782.466 648.01 783.459 650.04 783.798C652.88 784.228 655.75 784.38 658.62 784.251Z" fill="#FFD5D8"/>
<path id="Vector_29" d="M551.802 739.996C551.802 740.541 550.939 739.996 550.862 739.412C550.257 734.997 546.726 731.356 542.613 729.588C538.499 727.82 533.814 727.727 529.359 728.147C522.623 728.781 515.061 731.34 512.597 737.589C512.014 739.052 511.75 740.634 511.035 742.037C510.244 743.576 508.951 744.804 508.093 746.299C506.614 748.886 506.554 752.057 507.087 754.982C508.522 762.786 513.901 769.461 520.417 774.083C526.934 778.706 534.551 781.467 542.145 783.956C562.227 790.529 582.83 795.412 603.737 798.555C607.125 799.062 610.546 799.532 613.79 800.612C616.694 801.578 619.411 803.025 622.248 804.16C628.847 806.79 635.95 807.729 642.98 808.651C644.18 808.804 645.55 808.913 646.44 808.105C647.58 807.052 647.2 805.218 646.88 803.707C645.69 797.959 646.69 791.976 649.69 786.919C650.87 784.955 652.4 782.941 652.18 780.665C651.91 778.013 649.25 776.135 646.6 775.71C643.95 775.284 641.25 775.912 638.59 776.255C637.67 776.376 636.67 776.452 635.87 775.988C635.47 775.723 635.12 775.407 634.8 775.049C632.969 773.294 630.623 772.16 628.1 771.81C625.576 771.46 623.006 771.912 620.758 773.101C619.773 773.647 618.283 772.43 617.26 771.971L605.695 766.776C592.409 760.811 579.057 754.818 565 751.042C563.879 750.823 562.813 750.383 561.866 749.748C561.167 749.203 560.667 748.46 560.023 747.855C558.621 746.539 556.669 746.015 554.986 745.082C553.303 744.149 551.417 741.868 551.802 739.996Z" fill="#464353"/>
<path id="Vector_30" d="M730.1 811.32C728.25 814.72 724.66 816.838 720.81 817.711C719.85 817.927 718.86 818.066 717.88 818.126C713.01 818.426 708.2 817.089 703.51 815.768L697.14 813.989C696.05 813.647 694.93 813.398 693.79 813.247C692.24 813.144 690.69 813.197 689.15 813.405C681.62 814.1 674.03 813.762 666.6 812.401C665.98 812.334 665.38 812.123 664.86 811.784C664.4 811.337 663.99 810.841 663.64 810.305C661.91 808.237 660.04 807.03 662.1 804.302C663.28 802.719 665.47 801.928 666.39 800.11C667.31 798.293 666.72 795.712 666.18 793.834C665.43 791.242 662.99 790.123 662.12 787.744C661.46 785.948 662.56 783.863 664.22 782.886C665.87 781.91 667.92 781.833 669.83 782.084C671.74 782.335 673.61 782.87 675.53 783.017C681.17 783.465 686.94 780.578 692.35 782.204C693.55 782.564 694.67 783.137 695.88 783.454C698.24 783.978 700.71 783.766 702.94 782.848C703.73 782.553 704.51 782.199 705.28 781.849C706.76 781.082 708.34 780.515 709.98 780.163C715.26 779.263 720.16 782.892 724.15 786.434C725.52 787.561 726.73 788.864 727.75 790.309C728.85 792.011 729.44 793.992 729.95 795.946C731.41 800.994 732.61 806.681 730.1 811.32Z" fill="#3F3D56"/>
<path id="Vector_31" opacity="0.1" d="M730.1 811.32C728.25 814.72 724.66 816.838 720.81 817.711C722.31 814.824 722.98 811.586 722.76 808.346C722.43 803.156 720.14 798.266 717.2 793.954C715.4 791.3 713.35 788.821 711.08 786.548C709.33 784.802 707.18 783.416 705.3 781.817C706.78 781.05 708.36 780.482 710 780.13C715.29 779.23 720.19 782.859 724.17 786.401C725.54 787.528 726.75 788.831 727.77 790.276C728.87 791.979 729.46 793.96 729.97 795.913C731.41 800.994 732.61 806.681 730.1 811.32Z" fill="black"/>
<path id="Vector_32" d="M528.155 644.956C527.619 645.512 527.204 646.171 526.934 646.893C522.489 656.835 519.863 667.483 519.18 678.339C519.192 678.869 519.069 679.392 518.823 679.862C518.58 680.174 518.309 680.465 518.014 680.73C517.747 681.045 517.547 681.411 517.427 681.805C517.308 682.2 517.271 682.615 517.32 683.024C517.368 683.433 517.501 683.828 517.709 684.184C517.917 684.541 518.197 684.851 518.531 685.096C519.439 683.398 521.611 682.847 523.541 682.7C532.785 681.974 541.815 686.242 551.087 685.92C550.433 683.677 549.492 681.521 548.959 679.251C546.6 669.171 552.484 658.196 548.876 648.487C548.156 646.544 546.952 644.634 545.054 643.782C544.269 643.467 543.447 643.251 542.607 643.138C540.264 642.718 535.601 640.923 533.335 641.643C532.499 641.91 532.169 642.691 531.477 643.16C530.426 643.831 529.029 644.077 528.155 644.956Z" fill="black"/>
<path id="shirt-logo" fill-rule="evenodd" clip-rule="evenodd" d="M602.842 653.782C602.966 653.768 603.189 653.772 603.168 653.586C603.152 653.441 603.023 653.436 602.889 653.451L602.619 653.482L602.655 653.803L602.842 653.782ZM603.357 654.235L603.211 654.251L602.884 653.865L602.664 653.89L602.712 654.308L602.588 654.322L602.485 653.418L602.91 653.369C603.003 653.359 603.077 653.362 603.155 653.39C603.22 653.414 603.271 653.487 603.28 653.573C603.301 653.759 603.173 653.832 603.017 653.849L603.357 654.235ZM603.616 653.743C603.594 653.557 603.494 653.39 603.339 653.274C603.185 653.159 602.987 653.106 602.788 653.128C602.373 653.175 602.056 653.527 602.1 653.915C602.146 654.314 602.534 654.594 602.949 654.547C603.355 654.5 603.661 654.142 603.616 653.743ZM602.007 653.926C601.995 653.821 602.006 653.714 602.038 653.612C602.07 653.509 602.124 653.414 602.196 653.33C602.267 653.246 602.356 653.177 602.455 653.125C602.555 653.075 602.664 653.042 602.778 653.03C603.256 652.976 603.68 653.293 603.73 653.73C603.781 654.177 603.439 654.59 602.961 654.644C602.473 654.699 602.058 654.373 602.007 653.926ZM624.453 651.324C624.578 651.309 624.799 651.314 624.778 651.128C624.761 650.983 624.624 650.979 624.51 650.992L624.23 651.024L624.267 651.345L624.453 651.324ZM624.957 651.778L624.821 651.793L624.484 651.408L624.277 651.431L624.324 651.85L624.21 651.863L624.107 650.958L624.523 650.911C624.605 650.902 624.68 650.904 624.765 650.932C624.843 650.954 624.882 651.029 624.892 651.115C624.913 651.301 624.785 651.373 624.619 651.392L624.957 651.778ZM625.226 651.285C625.182 650.897 624.816 650.622 624.391 650.671C623.975 650.718 623.678 651.068 623.722 651.456C623.767 651.855 624.137 652.137 624.552 652.089C624.977 652.041 625.272 651.683 625.226 651.285ZM623.618 651.468C623.568 651.031 623.89 650.629 624.379 650.573C624.856 650.519 625.281 650.836 625.331 651.273C625.382 651.72 625.04 652.133 624.563 652.187C624.074 652.242 623.669 651.915 623.618 651.468ZM573.985 664.628C573.686 664.663 573.384 664.642 573.095 664.567C572.807 664.492 572.538 664.363 572.305 664.19C572.071 664.016 571.876 663.8 571.733 663.553C571.589 663.308 571.5 663.037 571.469 662.757C571.438 662.477 571.465 662.194 571.55 661.922C571.635 661.651 571.775 661.397 571.964 661.175C572.152 660.953 572.386 660.768 572.649 660.63C572.913 660.491 573.202 660.403 573.501 660.369C573.799 660.335 574.101 660.357 574.388 660.432C574.677 660.508 574.945 660.637 575.178 660.81C575.412 660.984 575.606 661.199 575.75 661.445C575.893 661.69 575.983 661.961 576.014 662.24C576.048 662.52 576.021 662.804 575.937 663.075C575.852 663.346 575.712 663.601 575.523 663.823C575.335 664.044 575.101 664.23 574.837 664.369C574.574 664.506 574.284 664.595 573.985 664.628ZM565.452 665.598C564.196 665.741 563.082 664.913 562.947 663.726C562.813 662.549 563.712 661.482 564.968 661.34C566.222 661.197 567.349 662.033 567.483 663.21C567.516 663.49 567.489 663.774 567.405 664.046C567.32 664.318 567.18 664.571 566.991 664.793C566.802 665.016 566.569 665.2 566.305 665.339C566.04 665.477 565.751 665.565 565.452 665.598ZM594.059 662.344C592.803 662.487 591.689 661.659 591.554 660.472C591.42 659.295 592.318 658.229 593.574 658.086C594.82 657.944 595.946 658.78 596.08 659.958C596.113 660.237 596.086 660.519 596.002 660.791C595.919 661.062 595.779 661.316 595.591 661.538C595.404 661.76 595.172 661.945 594.909 662.084C594.645 662.221 594.357 662.31 594.059 662.344ZM585.433 663.325C585.134 663.361 584.832 663.341 584.543 663.267C584.254 663.191 583.985 663.063 583.751 662.889C583.517 662.715 583.323 662.499 583.179 662.252C583.037 662.006 582.948 661.735 582.918 661.455C582.885 661.175 582.911 660.891 582.996 660.62C583.08 660.347 583.221 660.094 583.41 659.872C583.599 659.65 583.832 659.465 584.096 659.327C584.36 659.188 584.65 659.1 584.949 659.067C585.248 659.033 585.549 659.055 585.838 659.13C586.125 659.206 586.393 659.334 586.627 659.508C586.861 659.682 587.055 659.897 587.199 660.142C587.342 660.388 587.432 660.657 587.464 660.938C587.497 661.218 587.471 661.501 587.386 661.773C587.301 662.045 587.161 662.299 586.972 662.52C586.783 662.743 586.55 662.928 586.286 663.066C586.022 663.204 585.732 663.292 585.433 663.325ZM576.359 665.165C575.75 665.698 574.977 666.035 574.155 666.125C572.016 666.368 570.099 664.942 569.871 662.939C569.644 660.945 571.192 659.125 573.331 658.882C574.182 658.785 575.001 658.956 575.682 659.323L575.343 656.338L577.026 656.147L578.103 665.618L576.432 665.808L576.359 665.165ZM602.886 657.864C602.725 657.28 602.168 656.912 601.359 657.004C600.934 657.052 600.025 657.293 600.083 657.807C600.171 658.576 601.58 658.485 601.924 658.466C604.189 658.405 604.947 659.254 605.071 660.343C605.163 661.151 604.795 661.802 604.222 662.301C603.734 662.72 602.661 662.99 601.996 663.066C600.521 663.234 598.941 662.646 598.548 660.956L600.2 660.768C600.384 661.565 601.321 661.764 601.83 661.706C602.752 661.601 603.366 661.158 603.317 660.73C603.24 660.049 602.549 659.98 601.561 659.994C601.006 659.998 599.936 659.942 599.462 659.651C598.934 659.347 598.472 658.986 598.393 658.286C598.25 657.032 599.185 655.921 601.25 655.675C602.962 655.471 604.367 656.276 604.566 657.662L602.886 657.864ZM567.826 666.135C567.217 666.67 566.444 667.006 565.622 667.096C563.474 667.34 561.577 665.911 561.349 663.908C561.294 663.433 561.339 662.951 561.483 662.49C561.627 662.029 561.866 661.597 562.186 661.22C562.507 660.844 562.903 660.529 563.35 660.294C563.798 660.059 564.291 659.909 564.798 659.852C565.65 659.755 566.469 659.927 567.161 660.292L567.083 659.601L568.744 659.412L569.56 666.589L567.899 666.778L567.826 666.135ZM578.445 657.807L580.116 657.617L579.91 655.809L578.239 656L578.445 657.807ZM579.317 665.479L580.989 665.289L580.172 658.113L578.501 658.303L579.317 665.479ZM596.413 662.884C595.841 663.403 595.08 663.745 594.229 663.842C592.091 664.085 590.173 662.658 589.945 660.655C589.718 658.661 591.267 656.842 593.405 656.598C594.256 656.502 595.075 656.673 595.748 657.04L595.669 656.35L597.351 656.159L598.167 663.335L596.506 663.524L596.413 662.884ZM587.807 663.863C587.225 664.383 586.455 664.726 585.603 664.823C583.476 665.065 581.548 663.64 581.32 661.636C581.093 659.642 582.652 657.821 584.78 657.58C585.631 657.483 586.45 657.654 587.142 658.019L586.803 655.034L588.464 654.846L589.541 664.316L587.88 664.505L587.807 663.863ZM617.733 656.668C617.634 654.956 616.88 653.149 615.22 651.497C614.002 653.359 613.725 655.351 614.048 657.087L617.733 656.668ZM614.42 658.413C614.328 658.166 614.247 657.916 614.176 657.664L617.737 657.259C617.725 657.521 617.702 657.782 617.669 658.043L614.42 658.413ZM615.468 660.244C615.738 660.575 616.04 660.88 616.371 661.156C616.628 660.821 616.849 660.451 617.047 660.065L615.468 660.244ZM623.287 656.046C623.61 655.191 623.799 654.254 623.818 653.228C621.423 653.697 619.648 655.011 618.533 656.587L623.287 656.046ZM623.03 656.657C622.896 656.947 622.746 657.209 622.589 657.484L617.738 658.015C617.866 657.755 617.991 657.465 618.142 657.213L623.03 656.657ZM621.361 658.983C621.638 658.716 621.894 658.43 622.125 658.127L610.083 659.488C610.386 659.739 610.716 659.967 611.054 660.166L621.361 658.983ZM617.223 660.045C617.188 660.376 617.185 660.709 617.21 661.04C618.358 660.861 619.513 660.394 620.525 659.669L617.223 660.045ZM608.873 658.267C609.079 658.518 609.284 658.741 609.51 658.971L614.337 658.422C614.172 658.175 613.977 657.942 613.771 657.71L608.873 658.267ZM612.002 660.639C613.15 661.118 614.371 661.314 615.528 661.232C615.478 660.903 615.403 660.58 615.302 660.263L612.002 660.639ZM613.239 657.189C611.81 655.903 609.797 655.02 607.355 655.1C607.585 656.027 607.967 656.915 608.485 657.729L613.239 657.189Z" fill="#F0F5FF"/>
<path id="Vector_33" d="M665.91 662.821H552.038C549.618 662.821 547.655 664.768 547.655 667.171V735.968C547.655 738.37 549.618 740.318 552.038 740.318H665.91C668.33 740.318 670.29 738.37 670.29 735.968V667.171C670.29 664.768 668.33 662.821 665.91 662.821Z" fill="#3F3D56"/>
<path id="Vector_34" d="M608.698 704.844C610.52 704.844 611.998 703.378 611.998 701.569C611.998 699.761 610.52 698.295 608.698 698.295C606.876 698.295 605.398 699.761 605.398 701.569C605.398 703.378 606.876 704.844 608.698 704.844Z" fill="white"/>
<path id="Vector_35" d="M563.999 546.489C562.152 547.815 560.887 549.719 559.6 551.548C557.23 554.926 554.546 558.299 550.757 560.181C549.322 560.896 547.683 561.437 546.732 562.681C546.167 563.523 545.8 564.479 545.659 565.481C544.933 569.001 544.554 572.584 544.526 576.177C544.526 577.968 544.603 579.812 545.401 581.438C546.154 582.967 547.512 584.26 547.793 585.925C548.007 587.223 547.523 588.517 547.353 589.821C547.183 591.126 547.48 592.67 548.695 593.292C549.35 593.537 550.034 593.696 550.73 593.767C554.387 594.575 555.613 598.832 556.168 602.352C557.411 602.281 557.972 600.867 558.231 599.716L562.042 582.901C562.454 581.078 563.142 578.966 564.973 578.328C566.199 577.907 567.541 578.3 568.822 578.41C573.854 578.819 578.111 574.96 583.033 573.896C584.608 573.581 586.219 573.474 587.822 573.58C591.705 573.771 596.22 575.353 597.045 578.95C597.182 579.534 597.265 580.232 597.815 580.522C598.365 580.811 598.942 580.565 599.52 580.522C601.983 580.276 603.435 583.027 604.144 585.275L606.729 593.461C607.114 594.7 607.763 596.157 609.116 596.316C610.364 596.468 611.426 595.295 611.613 594.133C611.8 592.97 611.393 591.764 611.123 590.596C609.908 585.221 611.767 579.719 612.899 574.333C614.032 568.946 614.236 562.757 610.436 558.61C609.055 557.109 607.241 555.99 605.954 554.407C604.755 552.923 604.078 551.1 602.836 549.643C599.399 545.621 590.583 542.515 585.177 542.002C579.002 541.337 568.993 542.892 563.999 546.489Z" fill="#464353"/>
<g id="Group" opacity="0.1">
<path id="Vector_36" opacity="0.1" d="M609.138 592.495C607.785 592.332 607.136 590.858 606.751 589.641C605.889 586.909 605.028 584.18 604.166 581.455C603.457 579.201 602.005 576.45 599.541 576.701C598.964 576.761 598.342 576.985 597.837 576.701C597.331 576.418 597.204 575.714 597.067 575.13C596.242 571.528 591.727 569.95 587.844 569.759C586.241 569.655 584.63 569.759 583.054 570.07C578.132 571.162 573.876 574.982 568.844 574.584C567.546 574.48 566.204 574.087 564.995 574.507C563.141 575.141 562.476 577.236 562.063 579.081L558.252 595.89C557.994 597.047 557.433 598.46 556.19 598.526C555.64 595.011 554.408 590.754 550.751 589.947C550.056 589.871 549.373 589.711 548.717 589.472C548.238 589.213 547.864 588.799 547.655 588.299C547.556 588.806 547.441 589.314 547.375 589.821C547.21 591.12 547.501 592.67 548.717 593.292C549.371 593.537 550.055 593.696 550.751 593.767C554.408 594.575 555.635 598.832 556.19 602.352C557.433 602.281 557.994 600.867 558.252 599.716L562.063 582.901C562.476 581.078 563.163 578.966 564.995 578.328C566.221 577.907 567.563 578.3 568.844 578.41C573.876 578.819 578.132 574.96 583.054 573.896C584.63 573.581 586.241 573.474 587.844 573.58C591.727 573.771 596.242 575.353 597.067 578.95C597.204 579.534 597.287 580.232 597.837 580.522C598.386 580.811 598.964 580.565 599.541 580.522C602.005 580.276 603.457 583.027 604.166 585.275C605.024 588.008 605.886 590.736 606.751 593.461C607.136 594.7 607.785 596.157 609.138 596.316C610.386 596.468 611.447 595.295 611.634 594.133C611.719 593.155 611.607 592.169 611.304 591.235C611.108 591.633 610.798 591.965 610.413 592.189C610.027 592.414 609.584 592.52 609.138 592.495Z" fill="black"/>
<path id="Vector_37" opacity="0.1" d="M547.798 582.104C547.518 580.44 546.149 579.146 545.406 577.618C544.929 576.588 544.653 575.476 544.592 574.344C544.592 574.955 544.537 575.566 544.532 576.183C544.532 577.973 544.609 579.818 545.406 581.444C546.017 582.683 547.023 583.774 547.529 585.035C547.796 584.082 547.887 583.089 547.798 582.104Z" fill="black"/>
<path id="Vector_38" opacity="0.1" d="M612.921 570.491C611.921 575.25 610.359 580.096 610.843 584.866C611.156 581.346 612.19 577.804 612.921 574.311C613.532 571.659 613.746 568.932 613.559 566.217C613.44 567.654 613.227 569.081 612.921 570.491Z" fill="black"/>
</g>
<g id="Group_2" opacity="0.1">
<path id="Vector_39" opacity="0.1" d="M530.487 603.17C530.487 603.17 489.369 586.012 483.979 616.972C483.979 616.972 481.169 621.797 485.079 625.781C485.079 625.781 485.921 623.641 489.891 625.852C491.309 626.63 492.816 627.238 494.378 627.664C496.489 628.241 498.732 628.123 500.769 627.325C500.769 627.325 514.291 626.599 525.664 609.043C525.664 609.043 530.542 606.052 530.784 604.928L522.634 605.473C522.634 605.473 523.261 611.395 519.884 614.948C519.884 614.948 522.876 605.757 521.441 605.501C521.149 605.446 517.135 605.97 517.135 605.97C517.135 605.97 518.174 616.268 512.735 621.595C512.735 621.595 517.784 611.122 515.589 606.156L509.573 607.307C509.573 607.307 511.223 618.14 505.273 624.438C505.273 624.438 510.167 613.305 508.275 607.651L502.517 609.572C502.517 609.572 503.903 620.165 498.926 625.399C498.926 625.399 503.271 611.968 501.225 610.118C501.225 610.118 496.045 612.202 494.939 613.392C494.939 613.392 495.759 621.033 492.597 623.789C492.597 623.789 494.538 614.511 493.576 614.129C493.576 614.129 487.559 618.626 485.723 622.506C485.723 622.506 488.01 616.579 492.822 613.229C492.822 613.229 488.78 612.552 485.673 614.227C485.673 614.227 487.752 610.292 494.279 612.159C494.279 612.159 499.113 608.835 500.081 608.884C500.081 608.884 493.906 606.156 489.446 606.494C489.446 606.494 494.23 603.765 501.588 608.322L507.335 606.265C507.335 606.265 499.361 602.21 495.368 602.226C495.368 602.226 500.681 600.185 508.825 605.861L514.709 604.671C514.709 604.671 508.11 600.66 503.661 599.727C503.661 599.727 508.996 598.886 516.409 604.393L520.429 604.06C520.429 604.06 515.562 601.211 514.088 600.518C512.614 599.825 512.68 599.377 512.68 599.377C516.178 599.972 519.44 601.517 522.106 603.842C522.106 603.842 530.454 603.678 530.487 603.17Z" fill="black"/>
</g>
<g id="Group_3" opacity="0.1">
<path id="Vector_40" opacity="0.1" d="M528.969 572.412C528.969 572.412 514.406 538.974 493.426 554.309C493.426 554.309 488.994 555.586 489.027 560.149C489.027 560.149 490.754 559.352 491.848 562.916C492.249 564.18 492.803 565.391 493.498 566.523C494.416 568.062 495.816 569.26 497.485 569.934C497.485 569.934 505.937 577.149 522.782 573.149C522.782 573.149 527.401 574.125 528.188 573.602L523.04 569.306C523.04 569.306 520.01 573.181 515.952 573.367C515.952 573.367 523.007 569.601 522.303 568.635C522.16 568.439 519.471 566.485 519.471 566.485C519.471 566.485 514.181 573.187 507.923 573.29C507.923 573.29 516.936 569.918 518.481 565.732L514.247 563.003C514.247 563.003 508.907 570.376 501.758 570.758C501.758 570.758 511.057 566.911 513.18 562.479L508.654 560.367C508.654 560.367 503.397 567.462 497.452 567.729C497.452 567.729 507.747 562.206 507.587 559.952C507.587 559.952 503.314 558.26 501.956 558.359C501.956 558.359 498.068 563.352 494.598 563.21C494.598 563.21 501.082 558.795 500.73 558.026C500.73 558.026 494.57 557.294 491.254 558.572C491.254 558.572 496.017 556.345 500.796 557.076C500.796 557.076 498.783 554.386 495.984 553.638C495.984 553.638 499.481 552.475 502.286 557.267C502.286 557.267 507.059 558.031 507.62 558.599C507.62 558.599 505.525 553.474 502.671 551.166C502.671 551.166 507.07 552.257 508.83 559.117L513.428 561.142C513.428 561.142 511.019 554.222 508.632 551.979C508.632 551.979 512.96 553.769 514.544 561.748L518.723 564.362C518.723 564.362 517.107 558.25 515 555.177C515 555.177 518.652 557.698 519.889 565.159L522.474 567.233C522.474 567.233 521.215 562.79 520.736 561.546C520.258 560.302 520.555 560.072 520.555 560.072C522.292 562.412 523.337 565.187 523.574 568.084C523.574 568.084 528.655 572.69 528.969 572.412Z" fill="black"/>
</g>
<path id="Vector_41" d="M622 649H627V653H622V649Z" fill="black"/>
<path id="Vector_42" d="M606 651H601V655H606V651Z" fill="black"/>
</g>
</g>
<defs>
<linearGradient id="paint0_linear" x1="615.395" y1="820.963" x2="615.395" y2="541.974" gradientUnits="userSpaceOnUse">
<stop stop-color="#808080" stop-opacity="0.25"/>
<stop offset="0.54" stop-color="#808080" stop-opacity="0.12"/>
<stop offset="1" stop-color="#808080" stop-opacity="0.1"/>
</linearGradient>
</defs>
</svg>
