<svg width="566" height="621" viewBox="0 0 766 821" fill="none" xmlns="http://www.w3.org/2000/svg">
<g id="virtual-assistant">
<path id="floor" d="M0 766.435H766V768.435H0V766.435Z" fill="#3F3D56"/>
<path id="left-square" d="M36.47 743.716H59.83V767.078H36.47V743.716Z" fill="black"/>
<path id="right-diamond" d="M650.482 735.524L668.643 750.218L653.949 768.379L635.788 753.685L650.482 735.524Z" fill="black"/>
<g id="face">
<path id="Vector" d="M382 91.072H384V419.072H382V91.072Z" fill="#3F3D56"/>
<path id="Vector_2" d="M139 122.072H271V124.072H139V122.072Z" fill="#3F3D56"/>
<path id="Vector_3" d="M495 122.072H627V124.072H495V122.072Z" fill="#3F3D56"/>
<path id="Vector_4" d="M626.59 18.984L627.41 17.16C576.503 -5.73999 531.778 -5.719 494.476 17.22L495.524 18.924C532.227 -3.648 576.323 -3.627 626.59 18.984Z" fill="#3F3D56"/>
<path id="Vector_5" d="M274.59 18.984L275.41 17.16C224.503 -5.73999 179.778 -5.719 142.477 17.22L143.523 18.924C180.228 -3.648 224.322 -3.628 274.59 18.984Z" fill="#3F3D56"/>
<path id="smile" d="M373.455 619.738C378.174 619.738 383.081 619.57 388.066 619.24C398.339 618.519 408.552 617.12 418.64 615.051C500.862 598.278 561.093 541.368 561.691 540.794L560.309 539.349C559.714 539.918 499.88 596.437 418.24 613.092C408.24 615.142 398.115 616.529 387.932 617.244C382.481 617.606 377.123 617.777 372.008 617.732C361.339 617.672 350.692 616.784 340.161 615.075C291.864 607.195 246.631 581.726 205.719 539.377L204.281 540.766C245.499 583.433 291.107 609.098 339.839 617.049C350.472 618.774 361.222 619.671 371.994 619.732C372.479 619.736 372.967 619.738 373.455 619.738Z" fill="#3F3D56"/>
<g id="right-cheek">
<path id="Vector_6" d="M698 380.072C665.967 380.072 640 354.104 640 322.072C640 290.039 665.967 264.072 698 264.072C730.033 264.072 756 290.039 756 322.072C756 354.104 730.033 380.072 698 380.072Z" fill="black"/>
<path id="Vector_7" d="M698 381.072C711.449 381.072 724.596 377.084 735.779 369.612C746.961 362.14 755.677 351.52 760.824 339.094C765.971 326.669 767.317 312.996 764.693 299.806C762.07 286.615 755.593 274.498 746.083 264.988C736.573 255.478 724.457 249.002 711.266 246.378C698.075 243.754 684.403 245.101 671.978 250.248C659.552 255.395 648.932 264.11 641.46 275.293C633.988 286.475 630 299.623 630 313.072C630.02 331.1 637.191 348.384 649.939 361.132C662.687 373.88 679.972 381.051 698 381.072ZM698 247.072C711.054 247.072 723.814 250.942 734.668 258.195C745.521 265.447 753.981 275.755 758.976 287.815C763.971 299.874 765.278 313.145 762.732 325.948C760.185 338.75 753.899 350.51 744.669 359.741C735.439 368.971 723.679 375.257 710.876 377.803C698.073 380.35 684.803 379.043 672.743 374.048C660.683 369.052 650.375 360.593 643.123 349.739C635.871 338.886 632 326.125 632 313.072C632.02 295.573 638.98 278.798 651.353 266.424C663.726 254.051 680.502 247.091 698 247.072Z" fill="#3F3D56"/>
</g>
<g id="left-cheek">
<path id="Vector_8" d="M68 380.072C35.97 380.072 10 354.104 10 322.072C10 290.039 35.97 264.072 68 264.072C100.03 264.072 126 290.039 126 322.072C126 354.104 100.03 380.072 68 380.072Z" fill="black"/>
<path id="Vector_9" d="M68 381.072C81.45 381.072 94.6 377.084 105.78 369.612C116.96 362.14 125.68 351.52 130.82 339.094C135.971 326.669 137.317 312.996 134.693 299.806C132.07 286.615 125.59 274.498 116.08 264.988C106.57 255.478 94.46 249.002 81.27 246.378C68.08 243.754 54.4 245.101 41.98 250.248C29.55 255.395 18.9299 264.11 11.4599 275.293C3.98994 286.475 -1.52588e-05 299.623 -1.52588e-05 313.072C0.0199847 331.1 7.18992 348.384 19.9399 361.132C32.6899 373.88 49.97 381.051 68 381.072ZM68 247.072C81.05 247.072 93.81 250.942 104.67 258.195C115.52 265.447 123.98 275.755 128.98 287.815C133.971 299.874 135.278 313.145 132.73 325.948C130.19 338.75 123.9 350.51 114.67 359.741C105.44 368.971 93.68 375.257 80.88 377.803C68.07 380.35 54.8 379.043 42.74 374.048C30.68 369.052 20.38 360.593 13.12 349.739C5.86997 338.886 1.99998 326.125 1.99998 313.072C2.01998 295.573 8.97995 278.798 21.35 266.424C33.73 254.051 50.5 247.091 68 247.072Z" fill="#3F3D56"/>
</g>
<path id="Vector_10" d="M415 432.072C410.029 432.072 406 428.042 406 423.072C406 418.101 410.029 414.072 415 414.072C419.971 414.072 424 418.101 424 423.072C424 428.042 419.971 432.072 415 432.072Z" fill="#3F3D56"/>
<path id="Vector_11" d="M351 432.072C346.029 432.072 342 428.042 342 423.072C342 418.101 346.029 414.072 351 414.072C355.971 414.072 360 418.101 360 423.072C360 428.042 355.971 432.072 351 432.072Z" fill="#3F3D56"/>
<path id="Vector_12" d="M383 690.072C369.193 690.072 358 686.042 358 681.072C358 676.101 369.193 672.072 383 672.072C396.807 672.072 408 676.101 408 681.072C408 686.042 396.807 690.072 383 690.072Z" fill="#F2F2F2"/>
<g id="right-eye">
<path id="Vector_13" d="M561 122.072C543.879 122.072 530 108.192 530 91.072C530 73.951 543.879 60.072 561 60.072C578.121 60.072 592 73.951 592 91.072C592 108.192 578.121 122.072 561 122.072Z" fill="#3F3D56"/>
<path id="right-pupil" d="M554 112.072C549.582 112.072 546 108.49 546 104.072C546 99.653 549.582 96.072 554 96.072C558.418 96.072 562 99.653 562 104.072C562 108.49 558.418 112.072 554 112.072Z" fill="#F2F2F2"/>
</g>
<g id="left-eye">
<path id="Vector_14" d="M205 122.072C187.879 122.072 174 108.192 174 91.072C174 73.951 187.879 60.072 205 60.072C222.121 60.072 236 73.951 236 91.072C236 108.192 222.121 122.072 205 122.072Z" fill="#3F3D56"/>
<path id="left-pupil" d="M195 112.072C190.582 112.072 187 108.49 187 104.072C187 99.653 190.582 96.072 195 96.072C199.418 96.072 203 99.653 203 104.072C203 108.49 199.418 112.072 195 112.072Z" fill="#F2F2F2"/>
</g>
</g>
<g id="me">
<path id="Vector_15" d="M35.86 798.494C36.41 796.518 36.9601 794.521 38.0601 792.802C39.0801 791.344 40.29 790.028 41.66 788.889C45.65 785.298 50.54 781.652 55.82 782.558C57.46 782.917 59.04 783.49 60.52 784.261C61.29 784.616 62.07 784.97 62.86 785.27C65.09 786.195 67.55 786.409 69.91 785.882C71.12 785.56 72.25 784.981 73.44 784.621C74.01 784.452 74.5801 784.328 75.1701 784.25C74.0201 783.738 72.9 783.153 71.82 782.498C65.89 778.896 61.16 772.385 61.82 765.422C62.05 763.08 62.86 760.837 63.66 758.627L65.77 752.831C66.69 750.321 67.6301 747.761 69.3001 745.676C71.1501 743.351 73.79 741.774 76.52 740.601C82.38 738.074 88.78 737.184 95.1 736.322L95.5401 736.262V668.518C95.5401 667.36 96 666.249 96.82 665.431C97.65 664.612 98.7701 664.152 99.9301 664.152H108.24C108.61 661.925 108.97 659.702 109.34 657.483C110.38 651.147 111.47 644.696 114.41 638.993C116.33 635.26 119.4 631.696 123.53 630.965C124.34 630.892 125.14 630.708 125.9 630.419C127.11 629.83 127.77 628.52 128.7 627.554C131.09 625.06 134.993 625.021 138.204 623.733C141.042 622.615 143.363 620.508 145.947 618.887C148.532 617.266 151.744 616.115 154.603 617.168C154.603 617.375 154.642 617.583 154.664 617.785L156.5 616.944C158.48 616.033 160.498 615.1 162.088 613.604C164.128 611.694 165.217 609.162 166.064 606.471C166.152 606.193 166.234 605.926 166.322 605.625C162.807 602.067 160.427 597.558 159.481 592.664L159.036 594.099C158.935 594.422 158.818 594.739 158.684 595.049C158.456 595.649 158.078 596.18 157.584 596.593C157.443 596.703 157.287 596.793 157.122 596.861C156.97 596.92 156.811 596.961 156.649 596.981C156.421 597.009 156.189 596.992 155.967 596.932C155.595 596.817 155.254 596.622 154.968 596.359C154.683 596.097 154.46 595.774 154.317 595.414C154.23 595.2 154.165 594.977 154.125 594.749C154.103 594.611 154.091 594.473 154.086 594.334C154.086 594.29 154.086 594.247 154.086 594.203C154.086 594.159 154.086 594.012 154.086 593.919C154.086 593.826 154.086 593.821 154.086 593.766C154.086 593.712 154.086 593.586 154.114 593.493V593.352C154.114 593.242 154.147 593.133 154.169 593.029C154.191 592.926 154.169 592.969 154.169 592.942C154.196 592.806 154.229 592.664 154.257 592.527C154.257 592.495 154.257 592.456 154.257 592.424C154.257 592.391 154.306 592.2 154.334 592.085C154.361 591.971 154.372 591.938 154.389 591.862V591.829C154.444 591.611 154.493 591.398 154.543 591.179C154.942 589.285 155.044 587.341 154.845 585.416C154.516 582.591 153.99 579.792 153.272 577.039L153.157 576.542C153.113 576.351 153.069 576.16 153.03 575.964C152.942 575.571 152.854 575.178 152.772 574.78L152.574 573.775L152.425 572.88V572.766C152.117 570.738 152.052 568.68 152.233 566.637C152.486 563.783 153.377 561.081 155.329 558.931C156.709 557.408 158.53 556.284 159.811 554.685C161.01 553.19 161.686 551.345 162.929 549.877C166.361 545.811 175.171 542.678 180.576 542.133C186.769 541.511 196.772 543.082 201.765 546.712C203.613 548.049 204.878 549.986 206.165 551.82C208.529 555.231 211.213 558.636 215.002 560.552C216.432 561.272 218.071 561.818 219.022 563.073C219.588 563.924 219.955 564.89 220.095 565.9C220.823 569.454 221.202 573.069 221.227 576.695C221.227 577.148 221.227 577.601 221.227 578.06C221.216 579.419 220.924 580.762 220.369 582.005C220.281 582.191 220.182 582.371 220.078 582.551L220.012 582.666C219.347 583.609 218.758 584.604 218.252 585.64C218.126 585.93 218.036 586.234 217.983 586.546C217.889 587.345 217.941 588.155 218.137 588.936C218.137 589.056 218.186 589.176 218.208 589.297L218.258 589.531C218.258 589.613 218.258 589.695 218.302 589.771C218.346 590.006 218.384 590.241 218.417 590.47C218.501 591.101 218.459 591.743 218.296 592.358C218.221 592.701 218.073 593.025 217.863 593.307C217.652 593.589 217.384 593.824 217.075 593.995C216.762 594.145 216.429 594.248 216.086 594.301C215.739 594.361 215.387 594.399 215.046 594.476C214.608 594.575 214.184 594.731 213.787 594.94C213.406 595.12 213.049 595.348 212.725 595.616C212.565 595.761 212.413 595.914 212.269 596.075C211.979 596.405 211.717 596.759 211.488 597.134C211.371 597.326 211.261 597.523 211.158 597.723C210.764 598.513 210.449 599.339 210.218 600.19C210.075 600.697 209.954 601.21 209.849 601.723C209.8 601.953 209.756 602.182 209.717 602.406C209.679 602.629 209.64 602.858 209.607 603.082C209.457 603.074 209.309 603.044 209.167 602.995C208.359 602.706 207.908 601.772 207.655 600.866C207.611 600.714 207.573 600.566 207.54 600.419C207.413 599.873 207.281 599.273 207.155 598.7C204.987 603.268 201.492 607.088 197.118 609.669C196.964 610.122 196.816 610.57 196.684 611.028C195.964 613.501 195.617 616.088 196.865 618.249C197.756 619.782 199.252 620.726 200.924 621.381C201.165 621.062 201.475 620.801 201.831 620.617C203.278 619.897 205.015 620.77 206.231 621.845C208.43 623.821 210.223 626.653 213.116 627.303C214.161 627.543 215.316 627.494 216.184 628.127C216.759 628.663 217.24 629.29 217.609 629.982C218.236 630.877 219.081 631.601 220.064 632.087C221.047 632.573 222.137 632.807 223.235 632.766C224.241 632.717 225.434 632.487 226.122 633.219C226.633 633.764 226.672 634.627 227.222 635.145C227.959 635.866 229.168 635.516 230.197 635.473C232.155 635.391 233.975 636.646 235.091 638.256C236.207 639.866 236.741 641.792 237.291 643.713V643.746C237.432 643.848 237.566 643.959 237.692 644.079C238.225 644.643 238.639 645.307 238.908 646.033C243.355 656.082 245.98 666.83 246.662 677.785C246.651 678.319 246.772 678.847 247.014 679.324C247.26 679.635 247.53 679.927 247.822 680.197C248.083 680.514 248.278 680.881 248.394 681.274C248.51 681.668 248.545 682.08 248.497 682.487C248.45 682.895 248.32 683.288 248.116 683.645C247.912 684.001 247.638 684.313 247.311 684.563C247.152 684.278 246.954 684.017 246.722 683.788C246.783 684.039 246.838 684.285 246.876 684.508C247.097 686.101 247.117 687.714 246.937 689.311C246.416 696.893 245.89 704.47 245.358 712.042C245.21 714.186 245.061 716.326 244.863 718.465C244.478 722.605 243.929 726.73 243.214 730.837C243.181 731.023 243.142 731.214 243.093 731.383C247.575 732.796 251.562 735.351 253.239 739.613C253.822 741.086 254.086 742.691 254.801 744.104C255.587 745.654 256.879 746.893 257.737 748.41C259.217 751.019 259.283 754.217 258.744 757.142C257.704 762.846 254.597 767.943 250.495 772.091C250.676 772.091 250.863 772.091 251.045 772.091C252.385 772.238 253.672 772.696 254.801 773.428C263.479 778.46 268.439 789.254 266.63 799.111C266.272 801.037 265.651 802.991 264.353 804.459C263.274 805.626 261.887 806.469 260.349 806.893C259.388 807.18 258.398 807.363 257.396 807.439C250.632 807.985 244.083 804.874 237.302 804.612C235.056 804.576 232.809 804.68 230.576 804.923C227.31 805.192 224.038 805.363 220.76 805.436C215.431 805.562 212.434 804.153 209.035 800.202C208.2 799.219 207.503 798.129 206.962 796.961C204.07 796.797 200.874 796.546 198.565 796.36L198.532 796.677C198.405 797.768 198.213 799.023 197.333 799.711C196.838 800.05 196.275 800.279 195.683 800.382C190.129 801.736 184.508 803.111 178.789 803.111C176.105 803.057 173.426 802.853 170.766 802.5L160.718 801.348C157.791 801.717 154.901 802.341 152.084 803.215C149.181 804.192 146.47 805.643 143.632 806.795C137.033 809.447 129.94 810.397 122.91 811.325C121.71 811.483 120.34 811.592 119.45 810.779C118.31 809.687 118.69 807.865 119.01 806.337C119.14 805.709 119.24 805.081 119.32 804.448C114.58 805.689 109.94 807.287 105.44 809.229L104.65 809.573C104.42 810.763 103.32 811.712 102.26 812.995C101.91 813.536 101.5 814.037 101.04 814.49C100.51 814.828 99.9201 815.041 99.3001 815.112C91.8801 816.484 84.3001 816.824 76.7901 816.122C75.2501 815.914 73.69 815.861 72.15 815.964C71.01 816.117 69.8901 816.367 68.7901 816.711L62.4301 818.523C57.7401 819.855 52.94 821.203 48.07 820.903C47.08 820.841 46.1 820.701 45.14 820.482C41.29 819.598 37.7 817.464 35.86 814.032C33.24 809.365 34.45 803.624 35.86 798.494Z" fill="url(#paint0_linear)"/>
<path id="Vector_16" d="M214.248 794.282C215.408 791.662 216.508 788.649 215.347 786.03C214.59 784.487 213.289 783.274 211.69 782.619C210.109 781.979 208.441 781.571 206.741 781.407C201.404 780.713 196.004 780.639 190.65 781.189C190.259 784.256 191.084 787.367 191.794 790.33C192.437 793.059 192.806 793.463 195.643 793.605C197.48 793.703 213.813 795.248 214.248 794.282Z" fill="#FFD5D8"/>
<path id="Vector_17" d="M165.276 776.61C121.84 776.61 86.64 766.836 86.64 754.78C86.64 742.724 121.84 732.95 165.276 732.95C208.708 732.95 243.917 742.724 243.917 754.78C243.917 766.836 208.708 776.61 165.276 776.61Z" fill="#464353"/>
<path id="Vector_18" opacity="0.1" d="M165.276 776.61C121.84 776.61 86.64 766.836 86.64 754.78C86.64 742.724 121.84 732.95 165.276 732.95C208.708 732.95 243.917 742.724 243.917 754.78C243.917 766.836 208.708 776.61 165.276 776.61Z" fill="black"/>
<path id="Vector_19" d="M151.176 639.539C153.872 644.708 158.349 648.745 163.792 650.913C167.005 652.075 170.387 652.712 173.806 652.801C177.54 652.97 181.351 652.73 184.859 651.464C189.567 649.772 193.477 646.312 196.408 642.279C199.339 638.246 201.357 633.64 203.112 628.995C204.036 626.578 204.915 624.002 204.481 621.448C201.649 620.809 198.547 619.87 197.084 617.376C195.836 615.237 196.182 612.672 196.903 610.227C197.106 609.534 197.343 608.846 197.579 608.186C198.129 606.603 200.027 603.596 198.679 602.243C197.838 601.386 194.313 600.949 193.097 600.392C189.352 598.679 185.899 596.201 181.785 595.388C178.227 594.684 174.554 595.344 171.001 596.076C170.53 596.144 170.077 596.305 169.67 596.55C169.206 596.938 168.863 597.45 168.68 598.024C167.669 600.469 167.075 603.17 166.261 605.719C165.414 608.388 164.325 610.893 162.285 612.786C160.695 614.265 158.672 615.193 156.692 616.094L151.82 618.309C150.953 618.632 150.167 619.136 149.515 619.788C148.878 620.658 148.497 621.686 148.415 622.757C147.542 628.5 148.508 634.37 151.176 639.539Z" fill="#FFD5D8"/>
<path id="Vector_20" opacity="0.1" d="M166.283 605.719C170.163 609.728 175.274 612.346 180.814 613.161C186.355 613.977 192.011 612.945 196.897 610.227C197.101 609.534 197.337 608.846 197.574 608.186C198.124 606.603 200.021 603.596 198.674 602.243C197.832 601.386 194.307 600.949 193.092 600.392C189.347 598.679 185.893 596.201 181.78 595.388C178.222 594.684 174.548 595.344 170.995 596.076C170.524 596.144 170.072 596.305 169.665 596.55C169.201 596.938 168.857 597.45 168.675 598.024C167.69 600.469 167.096 603.17 166.283 605.719Z" fill="black"/>
<path id="Vector_21" d="M184.523 612.339C170.552 612.339 159.227 601.099 159.227 587.234C159.227 573.37 170.552 562.13 184.523 562.13C198.495 562.13 209.82 573.37 209.82 587.234C209.82 601.099 198.495 612.339 184.523 612.339Z" fill="#FFD5D8"/>
<path id="Vector_22" d="M107.45 668.71L109.53 656.212C110.58 649.941 111.66 643.55 114.6 637.902C116.53 634.202 119.59 630.676 123.72 629.945C124.54 629.873 125.34 629.689 126.1 629.399C127.31 628.821 127.97 627.522 128.9 626.561C131.3 624.094 135.2 624.056 138.412 622.801C141.25 621.71 143.57 619.608 146.155 618.004C148.74 616.399 151.957 615.275 154.817 616.301C155.278 621.186 155.768 626.179 157.858 630.627C159.218 633.523 161.213 636.08 163.697 638.112C166.181 640.144 169.092 641.599 172.215 642.371C175.339 643.143 178.597 643.213 181.752 642.575C184.906 641.936 187.877 640.607 190.447 638.682C195.346 635.02 198.487 629.372 199.949 623.461C200.307 622.021 200.714 620.367 202.05 619.707C203.496 618.986 205.234 619.859 206.45 620.918C208.649 622.877 210.448 625.683 213.34 626.343C214.385 626.583 215.54 626.534 216.409 627.162C216.986 627.69 217.47 628.312 217.839 629.001C218.472 629.888 219.317 630.606 220.3 631.088C221.282 631.57 222.369 631.802 223.464 631.762C224.471 631.713 225.664 631.484 226.352 632.21C226.863 632.756 226.902 633.607 227.451 634.114C228.194 634.829 229.398 634.48 230.432 634.442C232.39 634.36 234.21 635.604 235.332 637.171C236.454 638.737 236.982 640.674 237.532 642.552C231.521 655.835 226.022 669.135 220.011 682.419C219.729 682.92 219.58 683.483 219.576 684.056C219.697 684.651 219.953 685.211 220.324 685.693C223.272 690.392 223.179 696.303 222.854 701.826C222.53 707.349 222.134 713.183 224.619 718.133C225.296 719.492 226.176 720.736 226.819 722.095C228.326 725.173 228.87 735.018 227.99 738.326H103.66C106.03 731.859 105.13 718.881 104.64 712.015C104.29 707.212 105.19 702.415 105.57 697.613C106.41 687.805 105.82 678.5 107.45 668.71Z" fill="black"/>
<path id="Vector_23" d="M247.056 683.008C247.276 684.588 247.299 686.188 247.122 687.773L245.544 710.296C245.396 712.419 245.247 714.536 245.049 716.654C244.67 720.763 244.103 724.84 243.399 728.911C243.383 729.49 243.137 730.038 242.714 730.436C242.292 730.834 241.727 731.049 241.145 731.034C234.188 732.497 227 732.437 219.901 732.039C209.067 731.438 198.25 730.068 187.4 730.303C184.606 730.363 181.351 730.303 179.657 728.12C177.963 725.937 178.947 722.406 181.158 720.643C183.369 718.881 186.371 718.46 189.209 718.46C192.965 718.422 196.721 718.952 200.466 718.733C203.903 718.531 207.263 717.707 210.596 716.883L219.945 714.575C219.587 711.764 218.509 709.117 217.487 706.448C215.65 701.717 213.934 696.827 213.901 691.757C213.868 686.687 215.793 681.355 219.978 678.451C223.42 676.066 227.853 675.624 232.049 675.723C235.101 675.81 240.375 675.084 243.163 676.268C245.368 677.229 246.644 680.863 247.056 683.008Z" fill="#FFD5D8"/>
<path id="Vector_24" d="M101.09 734.505C99.26 733.812 97.24 734.063 95.28 734.325C88.96 735.182 82.5399 736.061 76.6899 738.566C73.9399 739.734 71.3199 741.295 69.4599 743.592C67.8099 745.661 66.8499 748.193 65.9399 750.687L63.8199 756.428C63.0199 758.611 62.21 760.838 61.98 763.157C61.32 770.028 66.06 776.506 72.01 780.076C77.97 783.645 84.98 784.916 91.81 786.248C98.64 787.58 105.5 789.053 112.3 790.614C115.47 791.431 118.69 792.06 121.94 792.497C129.22 793.316 136.834 792.109 143.752 794.5C146.501 795.455 149.202 796.874 152.056 797.534C153.952 797.93 155.868 798.22 157.797 798.402L170.891 799.886C173.554 800.24 176.234 800.444 178.92 800.498C184.639 800.498 190.265 799.155 195.819 797.813C196.41 797.71 196.972 797.485 197.469 797.152C198.349 796.465 198.542 795.248 198.668 794.145C199.229 789.266 199.72 784.382 200.142 779.492C200.274 777.904 200.373 776.184 199.498 774.847C198.399 773.21 196.254 772.697 194.296 772.381C185.994 771.033 177.585 770.454 169.175 770.651C165.98 767.48 160.712 767.463 156.527 765.739C154.987 765.037 153.497 764.233 152.067 763.332C144.581 758.998 136.215 756.374 127.58 755.653C125.89 755.602 124.21 755.364 122.57 754.944C119.33 753.945 116.38 751.227 113.05 751.893C112.64 750.763 112.35 749.252 111.4 748.477C110.93 748.078 110.34 747.811 109.91 747.385C108.99 746.463 108.91 745.011 109.05 743.723C109.18 742.435 109.49 741.114 109.16 739.859C109.02 739.384 108.81 738.93 108.55 738.511C106.9 735.684 104.4 734.233 101.09 734.505Z" fill="#464353"/>
<path id="Vector_25" opacity="0.05" d="M101.09 734.505C99.26 733.812 97.24 734.063 95.28 734.325C88.96 735.182 82.5399 736.061 76.6899 738.566C73.9399 739.734 71.3199 741.295 69.4599 743.592C67.8099 745.661 66.8499 748.193 65.9399 750.687L63.8199 756.428C63.0199 758.611 62.21 760.838 61.98 763.157C61.32 770.028 66.06 776.506 72.01 780.076C77.97 783.645 84.98 784.916 91.81 786.248C98.64 787.58 105.5 789.053 112.3 790.614C115.47 791.431 118.69 792.06 121.94 792.497C129.22 793.316 136.834 792.109 143.752 794.5C146.501 795.455 149.202 796.874 152.056 797.534C153.952 797.93 155.868 798.22 157.797 798.402L170.891 799.886C173.554 800.24 176.234 800.444 178.92 800.498C184.639 800.498 190.265 799.155 195.819 797.813C196.41 797.71 196.972 797.485 197.469 797.152C198.349 796.465 198.542 795.248 198.668 794.145C199.229 789.266 199.72 784.382 200.142 779.492C200.274 777.904 200.373 776.184 199.498 774.847C198.399 773.21 196.254 772.697 194.296 772.381C185.994 771.033 177.585 770.454 169.175 770.651C165.98 767.48 160.712 767.463 156.527 765.739C154.987 765.037 153.497 764.233 152.067 763.332C144.581 758.998 136.215 756.374 127.58 755.653C125.89 755.602 124.21 755.364 122.57 754.944C119.33 753.945 116.38 751.227 113.05 751.893C112.64 750.763 112.35 749.252 111.4 748.477C110.93 748.078 110.34 747.811 109.91 747.385C108.99 746.463 108.91 745.011 109.05 743.723C109.18 742.435 109.49 741.114 109.16 739.859C109.02 739.384 108.81 738.93 108.55 738.511C106.9 735.684 104.4 734.233 101.09 734.505Z" fill="black"/>
<path id="Vector_26" d="M209.188 797.654C212.592 801.567 215.589 802.965 220.918 802.839C224.196 802.763 227.469 802.593 230.74 802.332C232.975 802.092 235.223 801.988 237.471 802.02C244.257 802.282 250.807 805.366 257.576 804.826C258.577 804.747 259.567 804.564 260.53 804.28C262.065 803.86 263.453 803.025 264.539 801.868C265.836 800.41 266.458 798.479 266.815 796.568C268.625 786.778 263.664 776.114 254.981 771.131C253.848 770.405 252.56 769.951 251.219 769.805C249.905 769.799 248.605 770.083 247.414 770.634L247.331 770.667C243.803 772.108 240.599 774.23 237.905 776.91C237.497 777.375 237.009 777.765 236.465 778.062C235.921 778.266 235.346 778.373 234.765 778.378L227.539 778.831C226.315 778.868 225.098 779.034 223.91 779.328C222.599 779.782 221.324 780.329 220.093 780.965C216.205 782.69 211.894 783.148 207.692 783.814C207.287 783.836 206.901 783.99 206.592 784.251C206.425 784.458 206.308 784.701 206.251 784.96C205.661 787.153 205.62 789.457 206.132 791.669C206.643 793.882 207.693 795.936 209.188 797.654Z" fill="#3F3D56"/>
<path id="Vector_27" opacity="0.1" d="M247.331 770.672C250.135 773.329 252.567 776.347 254.563 779.645C257.766 785.087 259.778 791.138 260.469 797.403C260.731 799.689 260.751 801.995 260.53 804.285C262.065 803.865 263.453 803.03 264.539 801.873C265.836 800.416 266.458 798.484 266.815 796.574C268.625 786.783 263.664 776.119 254.981 771.136C253.848 770.41 252.56 769.956 251.219 769.81C249.905 769.805 248.605 770.088 247.414 770.64L247.331 770.672Z" fill="black"/>
<path id="Vector_28" d="M107.38 784.251C103.34 784.142 98.8 783.94 95.83 786.641C93 789.195 92.6199 793.408 92.4399 797.201L92.22 801.606C92.16 802.948 92.1 804.334 92.65 805.579C93.61 807.762 96.27 808.815 98.7 808.689C101.12 808.564 103.35 807.511 105.56 806.561C111.58 803.989 117.85 802.03 124.26 800.716C124.05 797.671 123.7 794.64 123.22 791.624C122.88 789.534 122.83 786.035 121.42 784.3C119.93 782.466 117.99 783.459 115.96 783.798C113.12 784.228 110.25 784.38 107.38 784.251Z" fill="#FFD5D8"/>
<path id="Vector_29" d="M214.198 739.996C214.198 740.541 215.061 739.996 215.138 739.412C215.743 734.997 219.274 731.356 223.387 729.588C227.501 727.82 232.186 727.727 236.641 728.147C243.377 728.781 250.939 731.34 253.403 737.589C253.986 739.052 254.25 740.634 254.965 742.037C255.756 743.576 257.049 744.804 257.907 746.299C259.386 748.886 259.446 752.057 258.913 754.982C257.478 762.786 252.099 769.461 245.583 774.083C239.066 778.706 231.449 781.467 223.855 783.956C203.773 790.529 183.17 795.412 162.263 798.555C158.875 799.062 155.454 799.532 152.21 800.612C149.306 801.578 146.589 803.025 143.752 804.16C137.153 806.79 130.05 807.729 123.02 808.651C121.82 808.804 120.45 808.913 119.56 808.105C118.42 807.052 118.8 805.218 119.12 803.707C120.31 797.959 119.31 791.976 116.31 786.919C115.13 784.955 113.6 782.941 113.82 780.665C114.09 778.013 116.75 776.135 119.4 775.71C122.05 775.284 124.75 775.912 127.41 776.255C128.33 776.376 129.33 776.452 130.13 775.988C130.53 775.723 130.88 775.407 131.2 775.049C133.031 773.294 135.377 772.16 137.9 771.81C140.424 771.46 142.994 771.912 145.242 773.101C146.227 773.647 147.717 772.43 148.74 771.971L160.305 766.776C173.591 760.811 186.943 754.818 201 751.042C202.121 750.823 203.187 750.383 204.134 749.748C204.833 749.203 205.333 748.46 205.977 747.855C207.379 746.539 209.331 746.015 211.014 745.082C212.697 744.149 214.583 741.868 214.198 739.996Z" fill="#464353"/>
<path id="Vector_30" d="M35.9 811.32C37.75 814.72 41.3399 816.838 45.1899 817.711C46.1499 817.927 47.14 818.066 48.12 818.126C52.99 818.426 57.8 817.089 62.49 815.768L68.86 813.989C69.95 813.647 71.0699 813.398 72.2099 813.247C73.7599 813.144 75.3099 813.197 76.8499 813.405C84.3799 814.1 91.97 813.762 99.4 812.401C100.02 812.334 100.62 812.123 101.14 811.784C101.6 811.337 102.01 810.841 102.36 810.305C104.09 808.237 105.96 807.03 103.9 804.302C102.72 802.719 100.53 801.928 99.61 800.11C98.69 798.293 99.2799 795.712 99.8199 793.834C100.57 791.242 103.01 790.123 103.88 787.744C104.54 785.948 103.44 783.863 101.78 782.886C100.13 781.91 98.08 781.833 96.17 782.084C94.26 782.335 92.3899 782.87 90.4699 783.017C84.8299 783.465 79.06 780.578 73.65 782.204C72.45 782.564 71.33 783.137 70.12 783.454C67.76 783.978 65.29 783.766 63.06 782.848C62.27 782.553 61.4899 782.199 60.7199 781.849C59.2399 781.082 57.66 780.515 56.02 780.163C50.74 779.263 45.8399 782.892 41.8499 786.434C40.4799 787.561 39.27 788.864 38.25 790.309C37.15 792.011 36.56 793.992 36.05 795.946C34.59 800.994 33.39 806.681 35.9 811.32Z" fill="#3F3D56"/>
<path id="Vector_31" opacity="0.1" d="M35.9 811.32C37.75 814.72 41.3399 816.838 45.1899 817.711C43.6899 814.824 43.02 811.586 43.24 808.346C43.57 803.156 45.86 798.266 48.8 793.954C50.6 791.3 52.65 788.821 54.92 786.548C56.67 784.802 58.82 783.416 60.7 781.817C59.22 781.05 57.64 780.482 56 780.13C50.71 779.23 45.81 782.859 41.83 786.401C40.46 787.528 39.25 788.831 38.23 790.276C37.13 791.979 36.54 793.96 36.03 795.913C34.59 800.994 33.39 806.681 35.9 811.32Z" fill="black"/>
<path id="Vector_32" d="M237.845 644.956C238.381 645.512 238.796 646.171 239.066 646.893C243.511 656.835 246.137 667.483 246.82 678.339C246.808 678.869 246.931 679.392 247.177 679.862C247.42 680.174 247.691 680.465 247.986 680.73C248.253 681.045 248.453 681.411 248.573 681.805C248.692 682.2 248.729 682.615 248.68 683.024C248.632 683.433 248.499 683.828 248.291 684.184C248.083 684.541 247.803 684.851 247.469 685.096C246.561 683.398 244.389 682.847 242.459 682.7C233.215 681.974 224.185 686.242 214.913 685.92C215.567 683.677 216.508 681.521 217.041 679.251C219.4 669.171 213.516 658.196 217.124 648.487C217.844 646.544 219.048 644.634 220.946 643.782C221.731 643.467 222.553 643.251 223.393 643.138C225.736 642.718 230.399 640.923 232.665 641.643C233.501 641.91 233.831 642.691 234.523 643.16C235.574 643.831 236.971 644.077 237.845 644.956Z" fill="black"/>
<path id="shirt-logo" fill-rule="evenodd" clip-rule="evenodd" d="M184.194 655.313C184.318 655.33 184.534 655.387 184.558 655.201C184.576 655.057 184.453 655.021 184.319 655.004L184.049 654.969L184.008 655.289L184.194 655.313ZM184.585 655.876L184.44 655.858L184.215 655.404L183.996 655.375L183.941 655.793L183.817 655.777L183.935 654.874L184.359 654.93C184.452 654.942 184.523 654.962 184.592 655.008C184.649 655.047 184.681 655.131 184.67 655.216C184.646 655.401 184.503 655.441 184.348 655.421L184.585 655.876ZM184.955 655.462C184.978 655.276 184.921 655.089 184.798 654.94C184.676 654.791 184.497 654.692 184.298 654.666C183.884 654.612 183.492 654.878 183.442 655.265C183.391 655.663 183.7 656.028 184.115 656.082C184.519 656.134 184.903 655.859 184.955 655.462ZM183.349 655.253C183.363 655.148 183.399 655.047 183.454 654.955C183.51 654.864 183.585 654.784 183.675 654.72C183.764 654.656 183.867 654.61 183.976 654.583C184.085 654.558 184.199 654.553 184.312 654.568C184.789 654.63 185.125 655.04 185.069 655.476C185.011 655.923 184.58 656.241 184.103 656.179C183.616 656.116 183.291 655.7 183.349 655.253ZM205.764 658.111C205.889 658.127 206.102 658.184 206.126 657.999C206.145 657.854 206.012 657.817 205.898 657.803L205.62 657.767L205.578 658.087L205.764 658.111ZM206.145 658.673L206.009 658.655L205.774 658.2L205.567 658.173L205.513 658.591L205.399 658.576L205.516 657.673L205.93 657.727C206.013 657.738 206.085 657.758 206.161 657.806C206.232 657.846 206.251 657.928 206.24 658.013C206.216 658.199 206.075 658.239 205.908 658.217L206.145 658.673ZM206.524 658.259C206.574 657.871 206.284 657.517 205.86 657.462C205.445 657.408 205.073 657.676 205.022 658.064C204.971 658.462 205.262 658.824 205.676 658.878C206.101 658.933 206.472 658.657 206.524 658.259ZM204.918 658.051C204.975 657.614 205.384 657.301 205.872 657.365C206.348 657.426 206.685 657.836 206.628 658.272C206.57 658.719 206.14 659.037 205.664 658.975C205.176 658.912 204.86 658.497 204.918 658.051ZM153.578 658.921C153.279 658.883 152.991 658.79 152.729 658.648C152.467 658.506 152.236 658.317 152.052 658.093C151.866 657.868 151.729 657.611 151.65 657.338C151.569 657.065 151.547 656.781 151.585 656.501C151.621 656.222 151.715 655.953 151.863 655.71C152.01 655.467 152.207 655.254 152.444 655.084C152.68 654.914 152.951 654.79 153.24 654.719C153.529 654.648 153.832 654.632 154.129 654.67C154.427 654.709 154.715 654.803 154.976 654.945C155.238 655.087 155.467 655.276 155.652 655.501C155.838 655.726 155.974 655.981 156.055 656.254C156.135 656.527 156.158 656.811 156.121 657.09C156.086 657.369 155.992 657.639 155.845 657.882C155.698 658.125 155.501 658.338 155.264 658.508C155.028 658.678 154.757 658.802 154.467 658.874C154.179 658.944 153.876 658.96 153.578 658.921ZM145.061 657.816C143.808 657.654 142.925 656.582 143.079 655.398C143.231 654.223 144.359 653.403 145.613 653.566C146.865 653.728 147.758 654.81 147.606 655.985C147.571 656.265 147.476 656.534 147.33 656.777C147.182 657.021 146.985 657.234 146.748 657.404C146.511 657.575 146.241 657.698 145.952 657.769C145.661 657.839 145.36 657.856 145.061 657.816ZM173.613 661.519C172.36 661.357 171.477 660.285 171.631 659.101C171.783 657.926 172.911 657.106 174.164 657.269C175.408 657.43 176.3 658.512 176.148 659.687C176.113 659.966 176.019 660.234 175.873 660.477C175.726 660.72 175.53 660.934 175.295 661.104C175.06 661.274 174.79 661.398 174.501 661.47C174.212 661.54 173.911 661.558 173.613 661.519ZM165.004 660.403C164.706 660.366 164.417 660.274 164.154 660.132C163.892 659.989 163.662 659.801 163.476 659.575C163.29 659.35 163.154 659.094 163.074 658.82C162.994 658.547 162.973 658.263 163.011 657.983C163.046 657.703 163.14 657.434 163.287 657.191C163.435 656.947 163.632 656.735 163.868 656.565C164.105 656.395 164.376 656.27 164.665 656.2C164.955 656.129 165.257 656.113 165.556 656.152C165.854 656.191 166.141 656.285 166.403 656.427C166.664 656.569 166.894 656.758 167.079 656.983C167.264 657.208 167.401 657.463 167.482 657.736C167.562 658.009 167.585 658.292 167.549 658.572C167.514 658.851 167.42 659.121 167.273 659.364C167.125 659.608 166.928 659.82 166.691 659.99C166.454 660.161 166.184 660.284 165.895 660.356C165.605 660.426 165.303 660.442 165.004 660.403ZM155.754 660.012C155.035 660.383 154.204 660.526 153.384 660.415C151.249 660.138 149.73 658.294 149.989 656.294C150.247 654.304 152.187 652.909 154.322 653.186C155.171 653.296 155.924 653.659 156.498 654.178L156.885 651.199L158.565 651.417L157.339 660.87L155.671 660.653L155.754 660.012ZM183.257 659.287C183.241 658.682 182.788 658.191 181.981 658.086C181.557 658.031 180.617 658.046 180.55 658.56C180.451 659.327 181.84 659.576 182.179 659.64C184.393 660.125 184.925 661.131 184.784 662.218C184.68 663.024 184.166 663.568 183.49 663.915C182.916 664.205 181.809 664.21 181.146 664.124C179.674 663.933 178.281 662.984 178.305 661.248L179.953 661.462C179.941 662.28 180.803 662.698 181.311 662.764C182.231 662.883 182.934 662.6 182.989 662.172C183.077 661.493 182.423 661.26 181.46 661.037C180.92 660.908 179.895 660.596 179.505 660.201C179.065 659.779 178.704 659.318 178.794 658.619C178.957 657.367 180.131 656.513 182.194 656.769C183.905 656.982 185.076 658.101 184.937 659.494L183.257 659.287ZM147.237 658.907C146.518 659.28 145.687 659.421 144.867 659.311C142.723 659.033 141.224 657.19 141.483 655.191C141.544 654.717 141.704 654.26 141.954 653.847C142.204 653.433 142.54 653.071 142.941 652.783C143.343 652.494 143.802 652.283 144.293 652.162C144.785 652.042 145.298 652.014 145.805 652.081C146.655 652.191 147.409 652.554 147.993 653.075L148.083 652.386L149.741 652.601L148.812 659.764L147.154 659.549L147.237 658.907ZM159.544 653.369L161.212 653.585L161.446 651.781L159.778 651.565L159.544 653.369ZM158.55 661.027L160.218 661.243L161.147 654.08L159.479 653.864L158.55 661.027ZM175.769 662.607C175.089 662.974 174.269 663.124 173.419 663.014C171.285 662.737 169.766 660.892 170.025 658.893C170.283 656.903 172.223 655.507 174.357 655.784C175.207 655.894 175.96 656.257 176.526 656.775L176.615 656.086L178.293 656.304L177.364 663.467L175.706 663.252L175.769 662.607ZM167.18 661.494C166.49 661.859 165.66 662.007 164.81 661.897C162.687 661.622 161.157 659.776 161.416 657.776C161.674 655.786 163.625 654.392 165.748 654.668C166.598 654.778 167.352 655.141 167.936 655.661L168.323 652.682L169.981 652.897L168.755 662.35L167.097 662.135L167.18 661.494ZM197.958 661.688C198.272 660.001 197.974 658.067 196.759 656.065C195.13 657.58 194.383 659.447 194.281 661.211L197.958 661.688ZM194.323 662.587C194.293 662.325 194.275 662.063 194.267 661.801L197.821 662.262C197.746 662.513 197.661 662.761 197.566 663.007L194.323 662.587ZM194.902 664.616C195.085 665.002 195.304 665.37 195.559 665.718C195.889 665.454 196.192 665.147 196.478 664.82L194.902 664.616ZM203.499 662.415C204.018 661.663 204.426 660.799 204.691 659.807C202.253 659.688 200.214 660.538 198.754 661.8L203.499 662.415ZM203.104 662.947C202.904 663.196 202.695 663.415 202.477 663.644L197.64 662.997C197.827 662.775 198.018 662.523 198.224 662.314L203.104 662.947ZM200.924 664.805C201.258 664.612 201.574 664.396 201.872 664.158L189.855 662.59C190.089 662.907 190.354 663.206 190.635 663.481L200.924 664.805ZM196.653 664.843C196.54 665.156 196.457 665.479 196.402 665.807C197.559 665.907 198.793 665.732 199.948 665.27L196.653 664.843ZM188.973 661.114C189.113 661.408 189.258 661.673 189.423 661.951L194.241 662.576C194.14 662.297 194.006 662.023 193.862 661.748L188.973 661.114ZM191.442 664.167C192.442 664.908 193.58 665.391 194.723 665.589C194.753 665.258 194.758 664.926 194.736 664.594L191.442 664.167ZM193.47 661.115C192.392 659.524 190.649 658.183 188.259 657.676C188.26 658.631 188.418 659.584 188.726 660.499L193.47 661.115Z" fill="#F0F5FF"/>
<path id="Vector_33" d="M100.09 662.821H213.962C216.382 662.821 218.345 664.768 218.345 667.171V735.968C218.345 738.37 216.382 740.318 213.962 740.318H100.09C97.67 740.318 95.71 738.37 95.71 735.968V667.171C95.71 664.768 97.67 662.821 100.09 662.821Z" fill="#3F3D56"/>
<path id="Vector_34" d="M157.302 704.844C155.48 704.844 154.002 703.378 154.002 701.569C154.002 699.761 155.48 698.295 157.302 698.295C159.124 698.295 160.602 699.761 160.602 701.569C160.602 703.378 159.124 704.844 157.302 704.844Z" fill="white"/>
<path id="Vector_35" d="M202.001 546.489C203.848 547.815 205.113 549.719 206.4 551.548C208.77 554.926 211.454 558.299 215.243 560.181C216.678 560.896 218.317 561.437 219.268 562.681C219.833 563.523 220.2 564.479 220.341 565.481C221.067 569.001 221.446 572.584 221.474 576.177C221.474 577.968 221.397 579.812 220.599 581.438C219.846 582.967 218.488 584.26 218.207 585.925C217.993 587.223 218.477 588.517 218.647 589.821C218.817 591.126 218.52 592.67 217.305 593.292C216.65 593.537 215.966 593.696 215.27 593.767C211.613 594.575 210.387 598.832 209.832 602.352C208.589 602.281 208.028 600.867 207.769 599.716L203.958 582.901C203.546 581.078 202.858 578.966 201.027 578.328C199.801 577.907 198.459 578.3 197.178 578.41C192.146 578.819 187.889 574.96 182.967 573.896C181.392 573.581 179.781 573.474 178.178 573.58C174.295 573.771 169.78 575.353 168.955 578.95C168.818 579.534 168.735 580.232 168.185 580.522C167.635 580.811 167.058 580.565 166.48 580.522C164.017 580.276 162.565 583.027 161.856 585.275L159.271 593.461C158.886 594.7 158.237 596.157 156.884 596.316C155.636 596.468 154.574 595.295 154.387 594.133C154.2 592.97 154.607 591.764 154.877 590.596C156.092 585.221 154.233 579.719 153.101 574.333C151.968 568.946 151.764 562.757 155.564 558.61C156.945 557.109 158.759 555.99 160.046 554.407C161.245 552.923 161.922 551.1 163.164 549.643C166.601 545.621 175.417 542.515 180.823 542.002C186.998 541.337 197.007 542.892 202.001 546.489Z" fill="#464353"/>
<g id="Group" opacity="0.1">
<path id="Vector_36" opacity="0.1" d="M156.862 592.495C158.215 592.332 158.864 590.858 159.249 589.641C160.111 586.909 160.972 584.18 161.834 581.455C162.543 579.201 163.995 576.45 166.459 576.701C167.036 576.761 167.658 576.985 168.163 576.701C168.669 576.418 168.796 575.714 168.933 575.13C169.758 571.528 174.273 569.95 178.156 569.759C179.759 569.655 181.37 569.759 182.946 570.07C187.868 571.162 192.124 574.982 197.156 574.584C198.454 574.48 199.796 574.087 201.005 574.507C202.859 575.141 203.524 577.236 203.937 579.081L207.748 595.89C208.006 597.047 208.567 598.46 209.81 598.526C210.36 595.011 211.592 590.754 215.249 589.947C215.944 589.871 216.627 589.711 217.283 589.472C217.762 589.213 218.136 588.799 218.345 588.299C218.444 588.806 218.559 589.314 218.625 589.821C218.79 591.12 218.499 592.67 217.283 593.292C216.629 593.537 215.945 593.696 215.249 593.767C211.592 594.575 210.365 598.832 209.81 602.352C208.567 602.281 208.006 600.867 207.748 599.716L203.937 582.901C203.524 581.078 202.837 578.966 201.005 578.328C199.779 577.907 198.437 578.3 197.156 578.41C192.124 578.819 187.868 574.96 182.946 573.896C181.37 573.581 179.759 573.474 178.156 573.58C174.273 573.771 169.758 575.353 168.933 578.95C168.796 579.534 168.713 580.232 168.163 580.522C167.614 580.811 167.036 580.565 166.459 580.522C163.995 580.276 162.543 583.027 161.834 585.275C160.976 588.008 160.114 590.736 159.249 593.461C158.864 594.7 158.215 596.157 156.862 596.316C155.614 596.468 154.553 595.295 154.366 594.133C154.281 593.155 154.393 592.169 154.696 591.235C154.892 591.633 155.202 591.965 155.587 592.189C155.973 592.414 156.416 592.52 156.862 592.495Z" fill="black"/>
<path id="Vector_37" opacity="0.1" d="M218.202 582.104C218.482 580.44 219.851 579.146 220.594 577.618C221.071 576.588 221.347 575.476 221.408 574.344C221.408 574.955 221.463 575.566 221.468 576.183C221.468 577.973 221.391 579.818 220.594 581.444C219.983 582.683 218.977 583.774 218.471 585.035C218.204 584.082 218.113 583.089 218.202 582.104Z" fill="black"/>
<path id="Vector_38" opacity="0.1" d="M153.079 570.491C154.079 575.25 155.641 580.096 155.157 584.866C154.844 581.346 153.81 577.804 153.079 574.311C152.468 571.659 152.254 568.932 152.441 566.217C152.56 567.654 152.773 569.081 153.079 570.491Z" fill="black"/>
</g>
<g id="Group_2" opacity="0.1">
<path id="Vector_39" opacity="0.1" d="M235.513 603.17C235.513 603.17 276.631 586.012 282.021 616.972C282.021 616.972 284.831 621.797 280.921 625.781C280.921 625.781 280.079 623.641 276.109 625.852C274.691 626.63 273.184 627.238 271.622 627.664C269.511 628.241 267.268 628.123 265.231 627.325C265.231 627.325 251.709 626.599 240.336 609.043C240.336 609.043 235.458 606.052 235.216 604.928L243.366 605.473C243.366 605.473 242.739 611.395 246.116 614.948C246.116 614.948 243.124 605.757 244.559 605.501C244.851 605.446 248.865 605.97 248.865 605.97C248.865 605.97 247.826 616.268 253.265 621.595C253.265 621.595 248.216 611.122 250.411 606.156L256.427 607.307C256.427 607.307 254.777 618.14 260.727 624.438C260.727 624.438 255.833 613.305 257.725 607.651L263.483 609.572C263.483 609.572 262.097 620.165 267.074 625.399C267.074 625.399 262.729 611.968 264.775 610.118C264.775 610.118 269.955 612.202 271.061 613.392C271.061 613.392 270.241 621.033 273.403 623.789C273.403 623.789 271.462 614.511 272.424 614.129C272.424 614.129 278.441 618.626 280.277 622.506C280.277 622.506 277.99 616.579 273.178 613.229C273.178 613.229 277.22 612.552 280.327 614.227C280.327 614.227 278.248 610.292 271.721 612.159C271.721 612.159 266.887 608.835 265.919 608.884C265.919 608.884 272.094 606.156 276.554 606.494C276.554 606.494 271.77 603.765 264.412 608.322L258.665 606.265C258.665 606.265 266.639 602.21 270.632 602.226C270.632 602.226 265.319 600.185 257.175 605.861L251.291 604.671C251.291 604.671 257.89 600.66 262.339 599.727C262.339 599.727 257.004 598.886 249.591 604.393L245.571 604.06C245.571 604.06 250.438 601.211 251.912 600.518C253.386 599.825 253.32 599.377 253.32 599.377C249.822 599.972 246.56 601.517 243.894 603.842C243.894 603.842 235.546 603.678 235.513 603.17Z" fill="black"/>
</g>
<g id="Group_3" opacity="0.1">
<path id="Vector_40" opacity="0.1" d="M237.031 572.412C237.031 572.412 251.594 538.974 272.574 554.309C272.574 554.309 277.006 555.586 276.973 560.149C276.973 560.149 275.246 559.352 274.152 562.916C273.751 564.18 273.197 565.391 272.502 566.523C271.584 568.062 270.184 569.26 268.515 569.934C268.515 569.934 260.063 577.149 243.218 573.149C243.218 573.149 238.599 574.125 237.812 573.602L242.96 569.306C242.96 569.306 245.99 573.181 250.048 573.367C250.048 573.367 242.993 569.601 243.697 568.635C243.84 568.439 246.529 566.485 246.529 566.485C246.529 566.485 251.819 573.187 258.077 573.29C258.077 573.29 249.064 569.918 247.519 565.732L251.753 563.003C251.753 563.003 257.093 570.376 264.242 570.758C264.242 570.758 254.943 566.911 252.82 562.479L257.346 560.367C257.346 560.367 262.603 567.462 268.548 567.729C268.548 567.729 258.253 562.206 258.413 559.952C258.413 559.952 262.686 558.26 264.044 558.359C264.044 558.359 267.932 563.352 271.402 563.21C271.402 563.21 264.918 558.795 265.27 558.026C265.27 558.026 271.43 557.294 274.746 558.572C274.746 558.572 269.983 556.345 265.204 557.076C265.204 557.076 267.217 554.386 270.016 553.638C270.016 553.638 266.519 552.475 263.714 557.267C263.714 557.267 258.941 558.031 258.38 558.599C258.38 558.599 260.475 553.474 263.329 551.166C263.329 551.166 258.93 552.257 257.17 559.117L252.572 561.142C252.572 561.142 254.981 554.222 257.368 551.979C257.368 551.979 253.04 553.769 251.456 561.748L247.277 564.362C247.277 564.362 248.893 558.25 251 555.177C251 555.177 247.348 557.698 246.111 565.159L243.526 567.233C243.526 567.233 244.785 562.79 245.264 561.546C245.742 560.302 245.445 560.072 245.445 560.072C243.708 562.412 242.663 565.187 242.426 568.084C242.426 568.084 237.345 572.69 237.031 572.412Z" fill="black"/>
</g>
<path id="Vector_41" d="M188 653H183V657H188V653Z" fill="black"/>
<path id="Vector_42" d="M204 655H209V659H204V655Z" fill="black"/>
</g>
</g>
<defs>
<linearGradient id="paint0_linear" x1="150.605" y1="820.963" x2="150.605" y2="541.974" gradientUnits="userSpaceOnUse">
<stop stop-color="#808080" stop-opacity="0.25"/>
<stop offset="0.54" stop-color="#808080" stop-opacity="0.12"/>
<stop offset="1" stop-color="#808080" stop-opacity="0.1"/>
</linearGradient>
</defs>
</svg>
