<svg width="1440" height="1024" viewBox="0 0 1440 1024" fill="none" xmlns="http://www.w3.org/2000/svg">
<g id="virtual-assistant">
<g id="wrapper">
<path id="floor" d="M367 923.435H1133V925.435H367V923.435Z" fill="#3F3D56"/>
<path id="left-square" d="M365 900H388.36V923.362H365V900Z" fill="black"/>
<path id="right-diamond" d="M1114.69 890L1132.85 904.694L1118.16 922.855L1100 908.161L1114.69 890Z" fill="black"/>
<g id="face">
<path id="Vector" d="M749 248.072H751V576.072H749V248.072Z" fill="#3F3D56"/>
<path id="Vector_2" d="M506 279.072H638V281.072H506V279.072Z" fill="#3F3D56"/>
<path id="Vector_3" d="M862 279.072H994V281.072H862V279.072Z" fill="#3F3D56"/>
<path id="Vector_4" d="M993.59 175.984L994.41 174.16C943.503 151.26 898.778 151.281 861.476 174.22L862.524 175.924C899.227 153.352 943.323 153.373 993.59 175.984Z" fill="#3F3D56"/>
<path id="Vector_5" d="M641.59 175.984L642.41 174.16C591.503 151.26 546.778 151.281 509.477 174.22L510.523 175.924C547.228 153.352 591.322 153.372 641.59 175.984Z" fill="#3F3D56"/>
<path id="smile" d="M740.455 776.738C745.174 776.738 750.081 776.57 755.066 776.24C765.339 775.519 775.552 774.12 785.64 772.051C867.862 755.278 928.093 698.368 928.691 697.794L927.309 696.349C926.714 696.918 866.88 753.437 785.24 770.092C775.24 772.142 765.115 773.529 754.932 774.244C749.481 774.606 744.123 774.777 739.008 774.732C728.339 774.672 717.692 773.784 707.161 772.075C658.864 764.195 613.631 738.726 572.719 696.377L571.281 697.766C612.499 740.433 658.107 766.098 706.839 774.049C717.472 775.774 728.222 776.671 738.994 776.732C739.479 776.736 739.967 776.738 740.455 776.738Z" fill="#3F3D56"/>
<g id="right-cheek">
<path id="Vector_6" d="M1065 537.072C1032.97 537.072 1007 511.104 1007 479.072C1007 447.039 1032.97 421.072 1065 421.072C1097.03 421.072 1123 447.039 1123 479.072C1123 511.104 1097.03 537.072 1065 537.072Z" fill="black"/>
<path id="Vector_7" d="M1065 538.072C1078.45 538.072 1091.6 534.084 1102.78 526.612C1113.96 519.14 1122.68 508.52 1127.82 496.094C1132.97 483.669 1134.32 469.996 1131.69 456.806C1129.07 443.615 1122.59 431.498 1113.08 421.988C1103.57 412.478 1091.46 406.002 1078.27 403.378C1065.07 400.754 1051.4 402.101 1038.98 407.248C1026.55 412.395 1015.93 421.11 1008.46 432.293C1000.99 443.475 997 456.623 997 470.072C997.02 488.1 1004.19 505.384 1016.94 518.132C1029.69 530.88 1046.97 538.051 1065 538.072ZM1065 404.072C1078.05 404.072 1090.81 407.942 1101.67 415.195C1112.52 422.447 1120.98 432.755 1125.98 444.815C1130.97 456.874 1132.28 470.145 1129.73 482.948C1127.18 495.75 1120.9 507.51 1111.67 516.741C1102.44 525.971 1090.68 532.257 1077.88 534.803C1065.07 537.35 1051.8 536.043 1039.74 531.048C1027.68 526.052 1017.37 517.593 1010.12 506.739C1002.87 495.886 999 483.125 999 470.072C999.02 452.573 1005.98 435.798 1018.35 423.424C1030.73 411.051 1047.5 404.091 1065 404.072Z" fill="#3F3D56"/>
</g>
<g id="left-cheek">
<path id="Vector_8" d="M435 537.072C402.97 537.072 377 511.104 377 479.072C377 447.039 402.97 421.072 435 421.072C467.03 421.072 493 447.039 493 479.072C493 511.104 467.03 537.072 435 537.072Z" fill="black"/>
<path id="Vector_9" d="M435 538.072C448.45 538.072 461.6 534.084 472.78 526.612C483.96 519.14 492.68 508.52 497.82 496.094C502.971 483.669 504.317 469.996 501.693 456.806C499.07 443.615 492.59 431.498 483.08 421.988C473.57 412.478 461.46 406.002 448.27 403.378C435.08 400.754 421.4 402.101 408.98 407.248C396.55 412.395 385.93 421.11 378.46 432.293C370.99 443.475 367 456.623 367 470.072C367.02 488.1 374.19 505.384 386.94 518.132C399.69 530.88 416.97 538.051 435 538.072ZM435 404.072C448.05 404.072 460.81 407.942 471.67 415.195C482.52 422.447 490.98 432.755 495.98 444.815C500.971 456.874 502.278 470.145 499.73 482.948C497.19 495.75 490.9 507.51 481.67 516.741C472.44 525.971 460.68 532.257 447.88 534.803C435.07 537.35 421.8 536.043 409.74 531.048C397.68 526.052 387.38 517.593 380.12 506.739C372.87 495.886 369 483.125 369 470.072C369.02 452.573 375.98 435.798 388.35 423.424C400.73 411.051 417.5 404.091 435 404.072Z" fill="#3F3D56"/>
</g>
<path id="Vector_10" d="M782 589.072C777.029 589.072 773 585.042 773 580.072C773 575.101 777.029 571.072 782 571.072C786.971 571.072 791 575.101 791 580.072C791 585.042 786.971 589.072 782 589.072Z" fill="#3F3D56"/>
<path id="Vector_11" d="M718 589.072C713.029 589.072 709 585.042 709 580.072C709 575.101 713.029 571.072 718 571.072C722.971 571.072 727 575.101 727 580.072C727 585.042 722.971 589.072 718 589.072Z" fill="#3F3D56"/>
<path id="Vector_12" d="M750 847.072C736.193 847.072 725 843.042 725 838.072C725 833.101 736.193 829.072 750 829.072C763.807 829.072 775 833.101 775 838.072C775 843.042 763.807 847.072 750 847.072Z" fill="#F2F2F2"/>
<g id="right-eye">
<path id="Vector_13" d="M928 279.072C910.879 279.072 897 265.192 897 248.072C897 230.951 910.879 217.072 928 217.072C945.121 217.072 959 230.951 959 248.072C959 265.192 945.121 279.072 928 279.072Z" fill="#3F3D56"/>
<path id="right-pupil" d="M921 269.072C916.582 269.072 913 265.49 913 261.072C913 256.653 916.582 253.072 921 253.072C925.418 253.072 929 256.653 929 261.072C929 265.49 925.418 269.072 921 269.072Z" fill="#F2F2F2"/>
</g>
<g id="left-eye">
<path id="Vector_14" d="M572 279.072C554.879 279.072 541 265.192 541 248.072C541 230.951 554.879 217.072 572 217.072C589.121 217.072 603 230.951 603 248.072C603 265.192 589.121 279.072 572 279.072Z" fill="#3F3D56"/>
<path id="left-pupil" d="M562 269.072C557.582 269.072 554 265.49 554 261.072C554 256.653 557.582 253.072 562 253.072C566.418 253.072 570 256.653 570 261.072C570 265.49 566.418 269.072 562 269.072Z" fill="#F2F2F2"/>
</g>
</g>
<g id="me">
<path id="Vector_15" d="M366.544 945.642C367.094 943.666 367.644 941.669 368.744 939.95C369.764 938.492 370.974 937.176 372.344 936.037C376.334 932.446 381.224 928.8 386.504 929.706C388.144 930.065 389.724 930.638 391.204 931.409C391.974 931.764 392.754 932.118 393.544 932.418C395.774 933.343 398.234 933.557 400.594 933.03C401.804 932.708 402.934 932.129 404.124 931.769C404.694 931.6 405.264 931.476 405.854 931.398C404.704 930.886 403.584 930.301 402.504 929.646C396.574 926.044 391.844 919.533 392.504 912.57C392.734 910.228 393.544 907.985 394.344 905.775L396.454 899.979C397.374 897.469 398.314 894.909 399.984 892.824C401.834 890.499 404.474 888.922 407.204 887.749C413.064 885.222 419.464 884.332 425.784 883.47L426.224 883.41V815.666C426.224 814.508 426.684 813.397 427.504 812.579C428.334 811.76 429.454 811.3 430.614 811.3H438.924C439.294 809.073 439.654 806.85 440.024 804.631C441.064 798.295 442.154 791.844 445.094 786.141C447.014 782.408 450.084 778.844 454.214 778.113C455.024 778.04 455.824 777.856 456.584 777.567C457.794 776.978 458.454 775.668 459.384 774.702C461.774 772.208 465.677 772.169 468.888 770.881C471.726 769.763 474.047 767.656 476.631 766.035C479.216 764.414 482.428 763.263 485.287 764.316C485.287 764.523 485.326 764.731 485.348 764.933L487.184 764.092C489.164 763.181 491.182 762.248 492.772 760.752C494.812 758.842 495.901 756.31 496.748 753.619C496.836 753.341 496.918 753.074 497.006 752.773C493.491 749.215 491.111 744.706 490.165 739.812L489.72 741.247C489.619 741.57 489.502 741.887 489.368 742.197C489.14 742.797 488.762 743.328 488.268 743.741C488.127 743.851 487.971 743.941 487.806 744.009C487.654 744.068 487.495 744.109 487.333 744.129C487.105 744.157 486.873 744.14 486.651 744.08C486.279 743.965 485.938 743.77 485.652 743.507C485.367 743.245 485.144 742.922 485.001 742.562C484.914 742.348 484.849 742.125 484.809 741.897C484.787 741.759 484.775 741.621 484.77 741.482C484.77 741.438 484.77 741.395 484.77 741.351C484.77 741.307 484.77 741.16 484.77 741.067C484.77 740.974 484.77 740.969 484.77 740.914C484.77 740.86 484.77 740.734 484.798 740.641V740.5C484.798 740.39 484.831 740.281 484.853 740.177C484.875 740.074 484.853 740.117 484.853 740.09C484.88 739.954 484.913 739.812 484.941 739.675C484.941 739.643 484.941 739.604 484.941 739.572C484.941 739.539 484.99 739.348 485.018 739.233C485.045 739.119 485.056 739.086 485.073 739.01V738.977C485.128 738.759 485.177 738.546 485.227 738.327C485.626 736.433 485.728 734.489 485.529 732.564C485.2 729.739 484.674 726.94 483.956 724.187L483.841 723.69C483.797 723.499 483.753 723.308 483.714 723.112C483.626 722.719 483.538 722.326 483.456 721.928L483.258 720.923L483.109 720.028V719.914C482.801 717.886 482.736 715.828 482.917 713.785C483.17 710.931 484.061 708.229 486.013 706.079C487.393 704.556 489.214 703.432 490.495 701.833C491.694 700.338 492.37 698.493 493.613 697.025C497.045 692.959 505.855 689.826 511.26 689.281C517.453 688.659 527.456 690.23 532.449 693.86C534.297 695.197 535.562 697.134 536.849 698.968C539.213 702.379 541.897 705.784 545.686 707.7C547.116 708.42 548.755 708.966 549.706 710.221C550.272 711.072 550.639 712.038 550.779 713.048C551.507 716.602 551.886 720.217 551.911 723.843C551.911 724.296 551.911 724.749 551.911 725.208C551.9 726.567 551.608 727.91 551.053 729.153C550.965 729.339 550.866 729.519 550.762 729.699L550.696 729.814C550.031 730.757 549.442 731.752 548.936 732.788C548.81 733.078 548.72 733.382 548.667 733.694C548.573 734.493 548.625 735.303 548.821 736.084C548.821 736.204 548.87 736.324 548.892 736.445L548.942 736.679C548.942 736.761 548.942 736.843 548.986 736.919C549.03 737.154 549.068 737.389 549.101 737.618C549.185 738.249 549.143 738.891 548.98 739.506C548.905 739.849 548.757 740.173 548.547 740.455C548.336 740.737 548.068 740.972 547.759 741.143C547.446 741.293 547.113 741.396 546.77 741.449C546.423 741.509 546.071 741.547 545.73 741.624C545.292 741.723 544.868 741.879 544.471 742.088C544.09 742.268 543.733 742.496 543.409 742.764C543.249 742.909 543.097 743.062 542.953 743.223C542.663 743.553 542.401 743.907 542.172 744.282C542.055 744.474 541.945 744.671 541.842 744.871C541.448 745.661 541.133 746.487 540.902 747.338C540.759 747.845 540.638 748.358 540.533 748.871C540.484 749.101 540.44 749.33 540.401 749.554C540.363 749.777 540.324 750.006 540.291 750.23C540.141 750.222 539.993 750.192 539.851 750.143C539.043 749.854 538.592 748.92 538.339 748.014C538.295 747.862 538.257 747.714 538.224 747.567C538.097 747.021 537.965 746.421 537.839 745.848C535.671 750.416 532.176 754.236 527.802 756.817C527.648 757.27 527.5 757.718 527.368 758.176C526.648 760.649 526.301 763.236 527.549 765.397C528.44 766.93 529.936 767.874 531.608 768.529C531.849 768.21 532.159 767.949 532.515 767.765C533.962 767.045 535.699 767.918 536.915 768.993C539.114 770.969 540.907 773.801 543.8 774.451C544.845 774.691 546 774.642 546.868 775.275C547.443 775.811 547.924 776.438 548.293 777.13C548.92 778.025 549.765 778.749 550.748 779.235C551.731 779.721 552.821 779.955 553.919 779.914C554.925 779.865 556.118 779.635 556.806 780.367C557.317 780.912 557.356 781.775 557.906 782.293C558.643 783.014 559.852 782.664 560.881 782.621C562.839 782.539 564.659 783.794 565.775 785.404C566.891 787.014 567.425 788.94 567.975 790.861V790.894C568.116 790.996 568.25 791.107 568.376 791.227C568.909 791.791 569.323 792.455 569.592 793.181C574.039 803.23 576.664 813.978 577.346 824.933C577.335 825.467 577.456 825.995 577.698 826.472C577.944 826.783 578.214 827.075 578.506 827.345C578.767 827.662 578.962 828.029 579.078 828.422C579.194 828.816 579.229 829.228 579.181 829.635C579.134 830.043 579.004 830.436 578.8 830.793C578.596 831.149 578.322 831.461 577.995 831.711C577.836 831.426 577.638 831.165 577.406 830.936C577.467 831.187 577.522 831.433 577.56 831.656C577.781 833.249 577.801 834.862 577.621 836.459C577.1 844.041 576.574 851.618 576.042 859.19C575.894 861.334 575.745 863.474 575.547 865.613C575.162 869.753 574.613 873.878 573.898 877.985C573.865 878.171 573.826 878.362 573.777 878.531C578.259 879.944 582.246 882.499 583.923 886.761C584.506 888.234 584.77 889.839 585.485 891.252C586.271 892.802 587.563 894.041 588.421 895.558C589.901 898.167 589.967 901.365 589.428 904.29C588.388 909.994 585.281 915.091 581.179 919.239C581.36 919.239 581.547 919.239 581.729 919.239C583.069 919.386 584.356 919.844 585.485 920.576C594.163 925.608 599.123 936.402 597.314 946.259C596.956 948.185 596.335 950.139 595.037 951.607C593.958 952.774 592.571 953.617 591.033 954.041C590.072 954.328 589.082 954.511 588.08 954.587C581.316 955.133 574.767 952.022 567.986 951.76C565.74 951.724 563.493 951.828 561.26 952.071C557.994 952.34 554.722 952.511 551.444 952.584C546.115 952.71 543.118 951.301 539.719 947.35C538.884 946.367 538.187 945.277 537.646 944.109C534.754 943.945 531.558 943.694 529.249 943.508L529.216 943.825C529.089 944.916 528.897 946.171 528.017 946.859C527.522 947.198 526.959 947.427 526.367 947.53C520.813 948.884 515.192 950.259 509.473 950.259C506.789 950.205 504.11 950.001 501.45 949.648L491.402 948.496C488.475 948.865 485.585 949.489 482.768 950.363C479.865 951.34 477.154 952.791 474.316 953.943C467.717 956.595 460.624 957.545 453.594 958.473C452.394 958.631 451.024 958.74 450.134 957.927C448.994 956.835 449.374 955.013 449.694 953.485C449.824 952.857 449.924 952.229 450.004 951.596C445.264 952.837 440.624 954.435 436.124 956.377L435.334 956.721C435.104 957.911 434.004 958.86 432.944 960.143C432.594 960.684 432.184 961.185 431.724 961.638C431.194 961.976 430.604 962.189 429.984 962.26C422.564 963.632 414.984 963.972 407.474 963.27C405.934 963.062 404.374 963.009 402.834 963.112C401.694 963.265 400.574 963.515 399.474 963.859L393.114 965.671C388.424 967.003 383.624 968.351 378.754 968.051C377.764 967.989 376.784 967.849 375.824 967.63C371.974 966.746 368.384 964.612 366.544 961.18C363.924 956.513 365.134 950.772 366.544 945.642Z" fill="url(#paint0_linear)"/>
<path id="Vector_16" d="M544.932 941.43C546.092 938.81 547.192 935.797 546.031 933.178C545.274 931.635 543.973 930.422 542.374 929.767C540.793 929.127 539.125 928.719 537.425 928.555C532.088 927.861 526.688 927.787 521.334 928.337C520.943 931.404 521.768 934.515 522.478 937.478C523.121 940.207 523.49 940.611 526.327 940.753C528.164 940.851 544.497 942.396 544.932 941.43Z" fill="#FFD5D8"/>
<path id="Vector_17" d="M495.96 923.758C452.524 923.758 417.324 913.984 417.324 901.928C417.324 889.872 452.524 880.098 495.96 880.098C539.392 880.098 574.601 889.872 574.601 901.928C574.601 913.984 539.392 923.758 495.96 923.758Z" fill="#464353"/>
<path id="Vector_18" opacity="0.1" d="M495.96 923.758C452.524 923.758 417.324 913.984 417.324 901.928C417.324 889.872 452.524 880.098 495.96 880.098C539.392 880.098 574.601 889.872 574.601 901.928C574.601 913.984 539.392 923.758 495.96 923.758Z" fill="black"/>
<path id="Vector_19" d="M481.86 786.687C484.556 791.856 489.033 795.893 494.476 798.061C497.689 799.223 501.071 799.86 504.49 799.949C508.224 800.118 512.035 799.878 515.543 798.612C520.251 796.92 524.161 793.46 527.092 789.427C530.023 785.394 532.041 780.788 533.796 776.143C534.72 773.726 535.599 771.15 535.165 768.596C532.333 767.957 529.231 767.018 527.768 764.524C526.52 762.385 526.866 759.82 527.587 757.375C527.79 756.682 528.027 755.994 528.263 755.334C528.813 753.751 530.711 750.744 529.363 749.391C528.522 748.534 524.997 748.097 523.781 747.54C520.036 745.827 516.583 743.349 512.469 742.536C508.911 741.832 505.238 742.492 501.685 743.224C501.214 743.292 500.761 743.453 500.354 743.698C499.89 744.086 499.547 744.598 499.364 745.172C498.353 747.617 497.759 750.318 496.945 752.867C496.098 755.536 495.009 758.041 492.969 759.934C491.379 761.413 489.356 762.341 487.376 763.242L482.504 765.457C481.637 765.78 480.851 766.284 480.199 766.936C479.562 767.806 479.181 768.834 479.099 769.905C478.226 775.648 479.192 781.518 481.86 786.687Z" fill="#FFD5D8"/>
<path id="Vector_20" opacity="0.1" d="M496.967 752.867C500.847 756.876 505.958 759.494 511.498 760.309C517.039 761.125 522.695 760.093 527.581 757.375C527.785 756.682 528.021 755.994 528.258 755.334C528.808 753.751 530.705 750.744 529.358 749.391C528.516 748.534 524.991 748.097 523.776 747.54C520.031 745.827 516.577 743.349 512.464 742.536C508.906 741.832 505.232 742.492 501.679 743.224C501.208 743.292 500.756 743.453 500.349 743.698C499.885 744.086 499.541 744.598 499.359 745.172C498.374 747.617 497.78 750.318 496.967 752.867Z" fill="black"/>
<path id="Vector_21" d="M515.207 759.487C501.236 759.487 489.911 748.247 489.911 734.382C489.911 720.518 501.236 709.278 515.207 709.278C529.179 709.278 540.504 720.518 540.504 734.382C540.504 748.247 529.179 759.487 515.207 759.487Z" fill="#FFD5D8"/>
<path id="Vector_22" d="M438.134 815.858L440.214 803.36C441.264 797.089 442.344 790.698 445.284 785.05C447.214 781.35 450.274 777.824 454.404 777.093C455.224 777.021 456.024 776.837 456.784 776.547C457.994 775.969 458.654 774.67 459.584 773.709C461.984 771.242 465.884 771.204 469.096 769.949C471.934 768.858 474.254 766.756 476.839 765.152C479.424 763.547 482.641 762.423 485.501 763.449C485.962 768.334 486.452 773.327 488.542 777.775C489.902 780.671 491.897 783.228 494.381 785.26C496.865 787.292 499.776 788.747 502.899 789.519C506.023 790.291 509.281 790.361 512.436 789.723C515.59 789.084 518.561 787.755 521.131 785.83C526.03 782.168 529.171 776.52 530.633 770.609C530.991 769.169 531.398 767.515 532.734 766.855C534.18 766.134 535.918 767.007 537.134 768.066C539.333 770.025 541.132 772.831 544.024 773.491C545.069 773.731 546.224 773.682 547.093 774.31C547.67 774.838 548.154 775.46 548.523 776.149C549.156 777.036 550.001 777.754 550.984 778.236C551.966 778.718 553.053 778.95 554.148 778.91C555.155 778.861 556.348 778.632 557.036 779.358C557.547 779.904 557.586 780.755 558.135 781.262C558.878 781.977 560.082 781.628 561.116 781.59C563.074 781.508 564.894 782.752 566.016 784.319C567.138 785.885 567.666 787.822 568.216 789.7C562.205 802.983 556.706 816.283 550.695 829.567C550.413 830.068 550.264 830.631 550.26 831.204C550.381 831.799 550.637 832.359 551.008 832.841C553.956 837.54 553.863 843.451 553.538 848.974C553.214 854.497 552.818 860.331 555.303 865.281C555.98 866.64 556.86 867.884 557.503 869.243C559.01 872.321 559.554 882.166 558.674 885.474H434.344C436.714 879.007 435.814 866.029 435.324 859.163C434.974 854.36 435.874 849.563 436.254 844.761C437.094 834.953 436.504 825.648 438.134 815.858Z" fill="black"/>
<path id="Vector_23" d="M577.74 830.156C577.96 831.736 577.983 833.336 577.806 834.921L576.228 857.444C576.08 859.567 575.931 861.684 575.733 863.802C575.354 867.911 574.787 871.988 574.083 876.059C574.067 876.638 573.821 877.186 573.398 877.584C572.976 877.982 572.411 878.197 571.829 878.182C564.872 879.645 557.684 879.585 550.585 879.187C539.751 878.586 528.934 877.216 518.084 877.451C515.29 877.511 512.035 877.451 510.341 875.268C508.647 873.085 509.631 869.554 511.842 867.791C514.053 866.029 517.055 865.608 519.893 865.608C523.649 865.57 527.405 866.1 531.15 865.881C534.587 865.679 537.947 864.855 541.28 864.031L550.629 861.723C550.271 858.912 549.193 856.265 548.171 853.596C546.334 848.865 544.618 843.975 544.585 838.905C544.552 833.835 546.477 828.503 550.662 825.599C554.104 823.214 558.537 822.772 562.733 822.871C565.785 822.958 571.059 822.232 573.847 823.416C576.052 824.377 577.328 828.011 577.74 830.156Z" fill="#FFD5D8"/>
<path id="Vector_24" d="M431.774 881.653C429.944 880.96 427.924 881.211 425.964 881.473C419.644 882.33 413.224 883.209 407.374 885.714C404.624 886.882 402.004 888.443 400.144 890.74C398.494 892.809 397.534 895.341 396.624 897.835L394.504 903.576C393.704 905.759 392.894 907.986 392.664 910.305C392.004 917.176 396.744 923.654 402.694 927.224C408.654 930.793 415.664 932.064 422.494 933.396C429.324 934.728 436.184 936.201 442.984 937.762C446.154 938.579 449.374 939.208 452.624 939.645C459.904 940.464 467.518 939.257 474.436 941.648C477.185 942.603 479.886 944.022 482.74 944.682C484.636 945.078 486.552 945.368 488.481 945.55L501.575 947.034C504.238 947.388 506.918 947.592 509.604 947.646C515.323 947.646 520.949 946.303 526.503 944.961C527.094 944.858 527.656 944.633 528.153 944.3C529.033 943.613 529.226 942.396 529.352 941.293C529.913 936.414 530.404 931.53 530.826 926.64C530.958 925.052 531.057 923.332 530.182 921.995C529.083 920.358 526.938 919.845 524.98 919.529C516.678 918.181 508.269 917.602 499.859 917.799C496.664 914.628 491.396 914.611 487.211 912.887C485.671 912.185 484.181 911.381 482.751 910.48C475.265 906.146 466.899 903.522 458.264 902.801C456.574 902.75 454.894 902.512 453.254 902.092C450.014 901.093 447.064 898.375 443.734 899.041C443.324 897.911 443.034 896.4 442.084 895.625C441.614 895.226 441.024 894.959 440.594 894.533C439.674 893.611 439.594 892.159 439.734 890.871C439.864 889.583 440.174 888.262 439.844 887.007C439.704 886.532 439.494 886.078 439.234 885.659C437.584 882.832 435.084 881.381 431.774 881.653Z" fill="#464353"/>
<path id="Vector_25" opacity="0.05" d="M431.774 881.653C429.944 880.96 427.924 881.211 425.964 881.473C419.644 882.33 413.224 883.209 407.374 885.714C404.624 886.882 402.004 888.443 400.144 890.74C398.494 892.809 397.534 895.341 396.624 897.835L394.504 903.576C393.704 905.759 392.894 907.986 392.664 910.305C392.004 917.176 396.744 923.654 402.694 927.224C408.654 930.793 415.664 932.064 422.494 933.396C429.324 934.728 436.184 936.201 442.984 937.762C446.154 938.579 449.374 939.208 452.624 939.645C459.904 940.464 467.518 939.257 474.436 941.648C477.185 942.603 479.886 944.022 482.74 944.682C484.636 945.078 486.552 945.368 488.481 945.55L501.575 947.034C504.238 947.388 506.918 947.592 509.604 947.646C515.323 947.646 520.949 946.303 526.503 944.961C527.094 944.858 527.656 944.633 528.153 944.3C529.033 943.613 529.226 942.396 529.352 941.293C529.913 936.414 530.404 931.53 530.826 926.64C530.958 925.052 531.057 923.332 530.182 921.995C529.083 920.358 526.938 919.845 524.98 919.529C516.678 918.181 508.269 917.602 499.859 917.799C496.664 914.628 491.396 914.611 487.211 912.887C485.671 912.185 484.181 911.381 482.751 910.48C475.265 906.146 466.899 903.522 458.264 902.801C456.574 902.75 454.894 902.512 453.254 902.092C450.014 901.093 447.064 898.375 443.734 899.041C443.324 897.911 443.034 896.4 442.084 895.625C441.614 895.226 441.024 894.959 440.594 894.533C439.674 893.611 439.594 892.159 439.734 890.871C439.864 889.583 440.174 888.262 439.844 887.007C439.704 886.532 439.494 886.078 439.234 885.659C437.584 882.832 435.084 881.381 431.774 881.653Z" fill="black"/>
<path id="Vector_26" d="M539.872 944.802C543.276 948.715 546.273 950.113 551.602 949.987C554.88 949.911 558.153 949.741 561.424 949.48C563.659 949.24 565.907 949.136 568.155 949.168C574.941 949.43 581.491 952.514 588.26 951.974C589.261 951.895 590.251 951.712 591.214 951.428C592.749 951.008 594.137 950.173 595.223 949.016C596.52 947.558 597.142 945.627 597.499 943.716C599.309 933.926 594.348 923.262 585.665 918.279C584.532 917.553 583.244 917.099 581.903 916.953C580.589 916.947 579.289 917.231 578.098 917.782L578.015 917.815C574.487 919.256 571.283 921.378 568.589 924.058C568.181 924.523 567.693 924.913 567.149 925.21C566.605 925.414 566.03 925.521 565.449 925.526L558.223 925.979C556.999 926.016 555.782 926.182 554.594 926.476C553.283 926.93 552.008 927.477 550.777 928.113C546.889 929.838 542.578 930.296 538.376 930.962C537.971 930.984 537.585 931.138 537.276 931.399C537.109 931.606 536.992 931.849 536.935 932.108C536.345 934.301 536.304 936.605 536.816 938.817C537.327 941.03 538.377 943.084 539.872 944.802Z" fill="#3F3D56"/>
<path id="Vector_27" opacity="0.1" d="M578.015 917.82C580.819 920.477 583.251 923.495 585.247 926.793C588.45 932.235 590.462 938.286 591.153 944.551C591.415 946.837 591.435 949.143 591.214 951.433C592.749 951.013 594.137 950.178 595.223 949.021C596.52 947.564 597.142 945.632 597.499 943.722C599.309 933.931 594.348 923.267 585.665 918.284C584.532 917.558 583.244 917.104 581.903 916.958C580.589 916.953 579.289 917.236 578.098 917.788L578.015 917.82Z" fill="black"/>
<path id="Vector_28" d="M438.064 931.399C434.024 931.29 429.484 931.088 426.514 933.789C423.684 936.343 423.304 940.556 423.124 944.349L422.904 948.754C422.844 950.096 422.784 951.482 423.334 952.727C424.294 954.91 426.954 955.963 429.384 955.837C431.804 955.712 434.034 954.659 436.244 953.709C442.264 951.137 448.534 949.178 454.944 947.864C454.734 944.819 454.384 941.788 453.904 938.772C453.564 936.682 453.514 933.183 452.104 931.448C450.614 929.614 448.674 930.607 446.644 930.946C443.804 931.376 440.934 931.528 438.064 931.399Z" fill="#FFD5D8"/>
<path id="Vector_29" d="M544.882 887.144C544.882 887.689 545.745 887.144 545.822 886.56C546.427 882.145 549.958 878.504 554.071 876.736C558.185 874.968 562.87 874.875 567.325 875.295C574.061 875.929 581.623 878.488 584.087 884.737C584.67 886.2 584.934 887.782 585.649 889.185C586.44 890.724 587.733 891.952 588.591 893.447C590.07 896.034 590.13 899.205 589.597 902.13C588.162 909.934 582.783 916.609 576.267 921.231C569.75 925.854 562.133 928.615 554.539 931.104C534.457 937.677 513.854 942.56 492.947 945.703C489.559 946.21 486.138 946.68 482.894 947.76C479.99 948.726 477.273 950.173 474.436 951.308C467.837 953.938 460.734 954.877 453.704 955.799C452.504 955.952 451.134 956.061 450.244 955.253C449.104 954.2 449.484 952.366 449.804 950.855C450.994 945.107 449.994 939.124 446.994 934.067C445.814 932.103 444.284 930.089 444.504 927.813C444.774 925.161 447.434 923.283 450.084 922.858C452.734 922.432 455.434 923.06 458.094 923.403C459.014 923.524 460.014 923.6 460.814 923.136C461.214 922.871 461.564 922.555 461.884 922.197C463.715 920.442 466.061 919.308 468.584 918.958C471.108 918.608 473.678 919.06 475.926 920.249C476.911 920.795 478.401 919.578 479.424 919.119L490.989 913.924C504.275 907.959 517.627 901.966 531.684 898.19C532.805 897.971 533.871 897.531 534.818 896.896C535.517 896.351 536.017 895.608 536.661 895.003C538.063 893.687 540.015 893.163 541.698 892.23C543.381 891.297 545.267 889.016 544.882 887.144Z" fill="#464353"/>
<path id="Vector_30" d="M366.584 958.468C368.434 961.868 372.024 963.986 375.874 964.859C376.834 965.075 377.824 965.214 378.804 965.274C383.674 965.574 388.484 964.237 393.174 962.916L399.544 961.137C400.634 960.795 401.754 960.546 402.894 960.395C404.444 960.292 405.994 960.345 407.534 960.553C415.064 961.248 422.654 960.91 430.084 959.549C430.704 959.482 431.304 959.271 431.824 958.932C432.284 958.485 432.694 957.989 433.044 957.453C434.774 955.385 436.644 954.178 434.584 951.45C433.404 949.867 431.214 949.076 430.294 947.258C429.374 945.441 429.964 942.86 430.504 940.982C431.254 938.39 433.694 937.271 434.564 934.892C435.224 933.096 434.124 931.011 432.464 930.034C430.814 929.058 428.764 928.981 426.854 929.232C424.944 929.483 423.074 930.018 421.154 930.165C415.514 930.613 409.744 927.726 404.334 929.352C403.134 929.712 402.014 930.285 400.804 930.602C398.444 931.126 395.974 930.914 393.744 929.996C392.954 929.701 392.174 929.347 391.404 928.997C389.924 928.23 388.344 927.663 386.704 927.311C381.424 926.411 376.524 930.04 372.534 933.582C371.164 934.709 369.954 936.012 368.934 937.457C367.834 939.159 367.244 941.14 366.734 943.094C365.274 948.142 364.074 953.829 366.584 958.468Z" fill="#3F3D56"/>
<path id="Vector_31" opacity="0.1" d="M366.584 958.468C368.434 961.868 372.024 963.986 375.874 964.859C374.374 961.972 373.704 958.734 373.924 955.494C374.254 950.304 376.544 945.414 379.484 941.102C381.284 938.448 383.334 935.969 385.604 933.696C387.354 931.95 389.504 930.564 391.384 928.965C389.904 928.198 388.324 927.63 386.684 927.278C381.394 926.378 376.494 930.007 372.514 933.549C371.144 934.676 369.934 935.979 368.914 937.424C367.814 939.127 367.224 941.108 366.714 943.061C365.274 948.142 364.074 953.829 366.584 958.468Z" fill="black"/>
<path id="Vector_32" d="M568.529 792.104C569.065 792.66 569.48 793.319 569.75 794.041C574.195 803.983 576.821 814.631 577.504 825.487C577.492 826.017 577.615 826.54 577.861 827.01C578.104 827.322 578.375 827.613 578.67 827.878C578.937 828.193 579.137 828.559 579.257 828.953C579.376 829.348 579.413 829.763 579.364 830.172C579.316 830.581 579.183 830.976 578.975 831.332C578.767 831.689 578.487 831.999 578.153 832.244C577.245 830.546 575.073 829.995 573.143 829.848C563.899 829.122 554.869 833.39 545.597 833.068C546.251 830.825 547.192 828.669 547.725 826.399C550.084 816.319 544.2 805.344 547.808 795.635C548.528 793.692 549.732 791.782 551.63 790.93C552.415 790.615 553.237 790.399 554.077 790.286C556.42 789.866 561.083 788.071 563.349 788.791C564.185 789.058 564.515 789.839 565.207 790.308C566.258 790.979 567.655 791.225 568.529 792.104Z" fill="black"/>
<path id="shirt-logo" fill-rule="evenodd" clip-rule="evenodd" d="M514.878 802.462C515.002 802.478 515.218 802.535 515.242 802.349C515.26 802.205 515.137 802.169 515.003 802.152L514.733 802.117L514.692 802.437L514.878 802.462ZM515.269 803.024L515.124 803.006L514.899 802.552L514.679 802.524L514.625 802.941L514.501 802.925L514.618 802.022L515.043 802.078C515.136 802.09 515.207 802.11 515.276 802.156C515.333 802.195 515.365 802.279 515.354 802.364C515.33 802.549 515.187 802.589 515.032 802.569L515.269 803.024ZM515.638 802.61C515.661 802.424 515.605 802.237 515.482 802.088C515.36 801.939 515.181 801.84 514.982 801.814C514.568 801.76 514.176 802.026 514.126 802.413C514.074 802.811 514.384 803.176 514.799 803.23C515.203 803.282 515.587 803.007 515.638 802.61ZM514.033 802.401C514.046 802.296 514.083 802.195 514.138 802.103C514.194 802.012 514.269 801.932 514.359 801.868C514.448 801.804 514.551 801.758 514.66 801.731C514.769 801.706 514.883 801.701 514.996 801.716C515.473 801.778 515.809 802.188 515.752 802.624C515.695 803.071 515.264 803.389 514.787 803.327C514.3 803.264 513.975 802.848 514.033 802.401ZM536.447 805.259C536.572 805.275 536.786 805.332 536.81 805.147C536.829 805.002 536.696 804.965 536.582 804.951L536.304 804.915L536.262 805.235L536.447 805.259ZM536.828 805.821L536.693 805.803L536.458 805.348L536.251 805.321L536.197 805.739L536.083 805.724L536.2 804.821L536.614 804.875C536.696 804.886 536.768 804.906 536.845 804.954C536.915 804.994 536.935 805.076 536.924 805.161C536.9 805.347 536.759 805.387 536.592 805.365L536.828 805.821ZM537.208 805.407C537.258 805.019 536.968 804.665 536.544 804.61C536.129 804.556 535.757 804.824 535.706 805.212C535.655 805.61 535.946 805.972 536.36 806.026C536.784 806.081 537.156 805.805 537.208 805.407ZM535.602 805.199C535.659 804.762 536.067 804.449 536.556 804.513C537.032 804.574 537.368 804.984 537.312 805.42C537.254 805.867 536.823 806.185 536.347 806.123C535.86 806.06 535.544 805.645 535.602 805.199ZM484.262 806.069C483.963 806.031 483.675 805.938 483.413 805.796C483.151 805.654 482.92 805.465 482.736 805.241C482.55 805.016 482.413 804.759 482.333 804.486C482.253 804.213 482.231 803.929 482.268 803.649C482.305 803.37 482.399 803.101 482.547 802.858C482.694 802.615 482.891 802.402 483.128 802.232C483.364 802.062 483.635 801.938 483.923 801.867C484.213 801.796 484.516 801.78 484.813 801.818C485.111 801.857 485.399 801.951 485.66 802.093C485.922 802.235 486.151 802.424 486.336 802.649C486.522 802.874 486.658 803.129 486.738 803.402C486.819 803.675 486.842 803.959 486.805 804.238C486.77 804.517 486.676 804.787 486.529 805.03C486.382 805.273 486.185 805.486 485.948 805.656C485.712 805.826 485.441 805.95 485.151 806.022C484.863 806.092 484.56 806.108 484.262 806.069ZM475.745 804.964C474.492 804.802 473.609 803.73 473.763 802.546C473.915 801.371 475.043 800.551 476.296 800.714C477.549 800.876 478.442 801.958 478.29 803.133C478.255 803.413 478.16 803.682 478.014 803.925C477.866 804.169 477.669 804.382 477.432 804.552C477.195 804.723 476.925 804.846 476.636 804.917C476.345 804.988 476.044 805.004 475.745 804.964ZM504.297 808.667C503.044 808.505 502.161 807.433 502.315 806.249C502.467 805.074 503.595 804.254 504.848 804.417C506.092 804.578 506.984 805.66 506.832 806.835C506.797 807.114 506.703 807.382 506.557 807.625C506.41 807.868 506.214 808.082 505.978 808.252C505.744 808.422 505.473 808.546 505.185 808.618C504.896 808.688 504.595 808.706 504.297 808.667ZM495.688 807.551C495.389 807.514 495.101 807.422 494.838 807.28C494.576 807.137 494.345 806.949 494.16 806.723C493.974 806.499 493.838 806.242 493.758 805.968C493.678 805.695 493.657 805.411 493.695 805.131C493.73 804.851 493.824 804.582 493.971 804.339C494.119 804.095 494.316 803.883 494.552 803.713C494.789 803.543 495.059 803.418 495.349 803.348C495.638 803.277 495.941 803.261 496.239 803.3C496.538 803.339 496.825 803.433 497.087 803.575C497.348 803.717 497.578 803.906 497.763 804.131C497.948 804.356 498.085 804.611 498.166 804.884C498.246 805.157 498.269 805.44 498.233 805.72C498.198 805.999 498.104 806.269 497.957 806.512C497.809 806.756 497.612 806.968 497.375 807.138C497.138 807.309 496.868 807.432 496.579 807.504C496.289 807.574 495.987 807.59 495.688 807.551ZM486.438 807.16C485.719 807.531 484.888 807.674 484.068 807.563C481.933 807.286 480.414 805.442 480.673 803.442C480.931 801.452 482.871 800.057 485.006 800.334C485.855 800.444 486.608 800.807 487.182 801.326L487.569 798.347L489.248 798.565L488.022 808.018L486.354 807.801L486.438 807.16ZM513.941 806.435C513.925 805.83 513.472 805.339 512.665 805.234C512.241 805.179 511.301 805.194 511.234 805.708C511.135 806.475 512.524 806.724 512.863 806.788C515.077 807.273 515.609 808.279 515.468 809.366C515.363 810.172 514.85 810.717 514.174 811.063C513.6 811.353 512.493 811.358 511.83 811.272C510.358 811.081 508.964 810.132 508.989 808.396L510.637 808.61C510.625 809.428 511.487 809.846 511.995 809.912C512.915 810.031 513.618 809.748 513.673 809.32C513.761 808.641 513.107 808.408 512.144 808.185C511.604 808.056 510.579 807.744 510.189 807.349C509.749 806.927 509.388 806.466 509.478 805.767C509.641 804.515 510.815 803.661 512.878 803.917C514.589 804.13 515.76 805.249 515.621 806.642L513.941 806.435ZM477.921 806.055C477.202 806.428 476.371 806.569 475.551 806.459C473.407 806.181 471.908 804.338 472.167 802.339C472.228 801.865 472.388 801.408 472.638 800.995C472.888 800.581 473.224 800.219 473.625 799.931C474.026 799.642 474.486 799.431 474.977 799.31C475.469 799.19 475.982 799.163 476.489 799.229C477.339 799.339 478.092 799.702 478.677 800.223L478.767 799.534L480.425 799.749L479.496 806.912L477.838 806.697L477.921 806.055ZM490.228 800.517L491.895 800.733L492.129 798.929L490.461 798.713L490.228 800.517ZM489.234 808.175L490.902 808.391L491.831 801.228L490.163 801.012L489.234 808.175ZM506.453 809.755C505.773 810.122 504.953 810.272 504.103 810.162C501.969 809.885 500.45 808.04 500.709 806.041C500.967 804.051 502.907 802.655 505.041 802.932C505.891 803.042 506.644 803.405 507.209 803.923L507.299 803.234L508.977 803.452L508.048 810.615L506.39 810.4L506.453 809.755ZM497.864 808.642C497.174 809.007 496.344 809.155 495.494 809.045C493.371 808.77 491.841 806.924 492.1 804.924C492.358 802.934 494.309 801.54 496.432 801.816C497.282 801.926 498.035 802.289 498.62 802.809L499.007 799.83L500.665 800.045L499.439 809.498L497.781 809.283L497.864 808.642ZM528.642 808.836C528.956 807.149 528.657 805.215 527.443 803.213C525.813 804.728 525.067 806.595 524.964 808.359L528.642 808.836ZM525.007 809.735C524.977 809.473 524.959 809.211 524.95 808.949L528.505 809.41C528.43 809.661 528.345 809.909 528.25 810.155L525.007 809.735ZM525.586 811.764C525.769 812.15 525.988 812.518 526.243 812.866C526.573 812.602 526.876 812.295 527.161 811.968L525.586 811.764ZM534.183 809.563C534.702 808.811 535.11 807.947 535.374 806.955C532.936 806.836 530.898 807.686 529.438 808.948L534.183 809.563ZM533.787 810.095C533.588 810.344 533.379 810.563 533.16 810.792L528.324 810.145C528.511 809.923 528.702 809.671 528.908 809.462L533.787 810.095ZM531.608 811.953C531.942 811.76 532.258 811.544 532.555 811.306L520.539 809.738C520.772 810.055 521.038 810.354 521.319 810.629L531.608 811.953ZM527.337 811.991C527.224 812.304 527.141 812.627 527.086 812.955C528.243 813.055 529.476 812.88 530.632 812.418L527.337 811.991ZM519.657 808.262C519.797 808.556 519.942 808.821 520.107 809.099L524.924 809.724C524.824 809.445 524.69 809.171 524.546 808.896L519.657 808.262ZM522.126 811.315C523.126 812.056 524.264 812.539 525.407 812.737C525.437 812.406 525.442 812.074 525.42 811.742L522.126 811.315ZM524.154 808.263C523.076 806.672 521.333 805.331 518.943 804.824C518.944 805.779 519.102 806.732 519.41 807.647L524.154 808.263Z" fill="#F0F5FF"/>
<path id="Vector_33" d="M430.774 809.969H544.646C547.066 809.969 549.029 811.916 549.029 814.319V883.116C549.029 885.518 547.066 887.466 544.646 887.466H430.774C428.354 887.466 426.394 885.518 426.394 883.116V814.319C426.394 811.916 428.354 809.969 430.774 809.969Z" fill="#3F3D56"/>
<path id="Vector_34" d="M487.986 851.992C486.164 851.992 484.686 850.526 484.686 848.717C484.686 846.909 486.164 845.443 487.986 845.443C489.808 845.443 491.286 846.909 491.286 848.717C491.286 850.526 489.808 851.992 487.986 851.992Z" fill="white"/>
<path id="Vector_35" d="M532.685 693.637C534.532 694.963 535.797 696.867 537.084 698.696C539.454 702.074 542.138 705.447 545.927 707.329C547.362 708.044 549.001 708.585 549.952 709.829C550.517 710.671 550.884 711.627 551.025 712.629C551.751 716.149 552.13 719.732 552.158 723.325C552.158 725.116 552.081 726.96 551.283 728.586C550.53 730.115 549.172 731.408 548.891 733.073C548.677 734.371 549.161 735.665 549.331 736.969C549.501 738.274 549.204 739.818 547.989 740.44C547.334 740.685 546.65 740.844 545.954 740.915C542.297 741.723 541.071 745.98 540.516 749.5C539.273 749.429 538.712 748.015 538.453 746.864L534.642 730.049C534.23 728.226 533.542 726.114 531.711 725.476C530.485 725.055 529.143 725.448 527.862 725.558C522.83 725.967 518.573 722.108 513.651 721.044C512.076 720.729 510.465 720.622 508.862 720.728C504.979 720.919 500.464 722.501 499.639 726.098C499.502 726.682 499.419 727.38 498.869 727.67C498.319 727.959 497.742 727.713 497.164 727.67C494.701 727.424 493.249 730.175 492.54 732.423L489.955 740.609C489.57 741.848 488.921 743.305 487.568 743.464C486.32 743.616 485.258 742.443 485.071 741.281C484.884 740.118 485.291 738.912 485.561 737.744C486.776 732.369 484.917 726.867 483.785 721.481C482.652 716.094 482.448 709.905 486.248 705.758C487.629 704.257 489.443 703.138 490.73 701.555C491.929 700.071 492.606 698.248 493.848 696.791C497.285 692.769 506.101 689.663 511.507 689.15C517.682 688.485 527.691 690.04 532.685 693.637Z" fill="#464353"/>
<g id="Group" opacity="0.1">
<path id="Vector_36" opacity="0.1" d="M487.546 739.643C488.899 739.48 489.548 738.006 489.933 736.789C490.795 734.057 491.656 731.328 492.518 728.603C493.227 726.349 494.679 723.598 497.143 723.849C497.72 723.909 498.342 724.133 498.847 723.849C499.353 723.566 499.48 722.862 499.617 722.278C500.442 718.676 504.957 717.098 508.84 716.907C510.443 716.803 512.054 716.907 513.63 717.218C518.552 718.31 522.808 722.13 527.84 721.732C529.138 721.628 530.48 721.235 531.689 721.655C533.543 722.289 534.208 724.384 534.621 726.229L538.432 743.038C538.69 744.195 539.251 745.608 540.494 745.674C541.044 742.159 542.276 737.902 545.933 737.095C546.628 737.019 547.311 736.859 547.967 736.62C548.446 736.361 548.82 735.947 549.029 735.447C549.128 735.954 549.243 736.462 549.309 736.969C549.474 738.268 549.183 739.818 547.967 740.44C547.313 740.685 546.629 740.844 545.933 740.915C542.276 741.723 541.049 745.98 540.494 749.5C539.251 749.429 538.69 748.015 538.432 746.864L534.621 730.049C534.208 728.226 533.521 726.114 531.689 725.476C530.463 725.055 529.121 725.448 527.84 725.558C522.808 725.967 518.552 722.108 513.63 721.044C512.054 720.729 510.443 720.622 508.84 720.728C504.957 720.919 500.442 722.501 499.617 726.098C499.48 726.682 499.397 727.38 498.847 727.67C498.298 727.959 497.72 727.713 497.143 727.67C494.679 727.424 493.227 730.175 492.518 732.423C491.66 735.156 490.798 737.884 489.933 740.609C489.548 741.848 488.899 743.305 487.546 743.464C486.298 743.616 485.237 742.443 485.05 741.281C484.965 740.303 485.077 739.317 485.38 738.383C485.576 738.781 485.886 739.113 486.271 739.337C486.657 739.562 487.1 739.668 487.546 739.643Z" fill="black"/>
<path id="Vector_37" opacity="0.1" d="M548.886 729.252C549.166 727.588 550.535 726.294 551.278 724.766C551.755 723.736 552.031 722.624 552.092 721.492C552.092 722.103 552.147 722.714 552.152 723.331C552.152 725.121 552.075 726.966 551.278 728.592C550.667 729.831 549.661 730.922 549.155 732.183C548.888 731.23 548.797 730.237 548.886 729.252Z" fill="black"/>
<path id="Vector_38" opacity="0.1" d="M483.763 717.639C484.763 722.398 486.325 727.244 485.841 732.014C485.528 728.494 484.494 724.952 483.763 721.459C483.152 718.807 482.938 716.08 483.125 713.365C483.244 714.802 483.457 716.229 483.763 717.639Z" fill="black"/>
</g>
<g id="Group_2" opacity="0.1">
<path id="Vector_39" opacity="0.1" d="M566.197 750.318C566.197 750.318 607.315 733.16 612.705 764.12C612.705 764.12 615.515 768.945 611.605 772.929C611.605 772.929 610.763 770.789 606.793 773C605.375 773.778 603.868 774.386 602.306 774.812C600.195 775.389 597.952 775.271 595.915 774.473C595.915 774.473 582.393 773.747 571.02 756.191C571.02 756.191 566.142 753.2 565.9 752.076L574.05 752.621C574.05 752.621 573.423 758.543 576.8 762.096C576.8 762.096 573.808 752.905 575.243 752.649C575.535 752.594 579.549 753.118 579.549 753.118C579.549 753.118 578.51 763.416 583.949 768.743C583.949 768.743 578.9 758.27 581.095 753.304L587.111 754.455C587.111 754.455 585.461 765.288 591.411 771.586C591.411 771.586 586.517 760.453 588.409 754.799L594.167 756.72C594.167 756.72 592.781 767.313 597.758 772.547C597.758 772.547 593.413 759.116 595.459 757.266C595.459 757.266 600.639 759.35 601.745 760.54C601.745 760.54 600.925 768.181 604.087 770.937C604.087 770.937 602.146 761.659 603.108 761.277C603.108 761.277 609.125 765.774 610.961 769.654C610.961 769.654 608.674 763.727 603.862 760.377C603.862 760.377 607.904 759.7 611.011 761.375C611.011 761.375 608.932 757.44 602.405 759.307C602.405 759.307 597.571 755.983 596.603 756.032C596.603 756.032 602.778 753.304 607.238 753.642C607.238 753.642 602.454 750.913 595.096 755.47L589.349 753.413C589.349 753.413 597.323 749.358 601.316 749.374C601.316 749.374 596.003 747.333 587.859 753.009L581.975 751.819C581.975 751.819 588.574 747.808 593.023 746.875C593.023 746.875 587.688 746.034 580.275 751.541L576.255 751.208C576.255 751.208 581.122 748.359 582.596 747.666C584.07 746.973 584.004 746.525 584.004 746.525C580.506 747.12 577.244 748.665 574.578 750.99C574.578 750.99 566.23 750.826 566.197 750.318Z" fill="black"/>
</g>
<g id="Group_3" opacity="0.1">
<path id="Vector_40" opacity="0.1" d="M567.715 719.56C567.715 719.56 582.278 686.122 603.258 701.457C603.258 701.457 607.69 702.734 607.657 707.297C607.657 707.297 605.93 706.5 604.836 710.064C604.435 711.328 603.881 712.539 603.186 713.671C602.268 715.21 600.868 716.408 599.199 717.082C599.199 717.082 590.747 724.297 573.902 720.297C573.902 720.297 569.283 721.273 568.496 720.75L573.644 716.454C573.644 716.454 576.674 720.329 580.732 720.515C580.732 720.515 573.677 716.749 574.381 715.783C574.524 715.587 577.213 713.633 577.213 713.633C577.213 713.633 582.503 720.335 588.761 720.438C588.761 720.438 579.748 717.066 578.203 712.88L582.437 710.151C582.437 710.151 587.777 717.524 594.926 717.906C594.926 717.906 585.627 714.059 583.504 709.627L588.03 707.515C588.03 707.515 593.287 714.61 599.232 714.877C599.232 714.877 588.937 709.354 589.097 707.1C589.097 707.1 593.37 705.408 594.728 705.507C594.728 705.507 598.616 710.5 602.086 710.358C602.086 710.358 595.602 705.943 595.954 705.174C595.954 705.174 602.114 704.442 605.43 705.72C605.43 705.72 600.667 703.493 595.888 704.224C595.888 704.224 597.901 701.534 600.7 700.786C600.7 700.786 597.203 699.623 594.398 704.415C594.398 704.415 589.625 705.179 589.064 705.747C589.064 705.747 591.159 700.622 594.013 698.314C594.013 698.314 589.614 699.405 587.854 706.265L583.256 708.29C583.256 708.29 585.665 701.37 588.052 699.127C588.052 699.127 583.724 700.917 582.14 708.896L577.961 711.51C577.961 711.51 579.577 705.398 581.684 702.325C581.684 702.325 578.032 704.846 576.795 712.307L574.21 714.381C574.21 714.381 575.469 709.938 575.948 708.694C576.426 707.45 576.129 707.22 576.129 707.22C574.392 709.56 573.347 712.335 573.11 715.232C573.11 715.232 568.029 719.838 567.715 719.56Z" fill="black"/>
</g>
<path id="Vector_41" d="M518.684 800.148H513.684V804.148H518.684V800.148Z" fill="black"/>
<path id="Vector_42" d="M534.684 802.148H539.684V806.148H534.684V802.148Z" fill="black"/>
</g>
</g>
</g>
<defs>
<linearGradient id="paint0_linear" x1="481.289" y1="968.111" x2="481.289" y2="689.122" gradientUnits="userSpaceOnUse">
<stop stop-color="#808080" stop-opacity="0.25"/>
<stop offset="0.54" stop-color="#808080" stop-opacity="0.12"/>
<stop offset="1" stop-color="#808080" stop-opacity="0.1"/>
</linearGradient>
</defs>
</svg>
